{
  "accessors": [
    {
      "bufferView": 2,
      "componentType": 5126,
      "count": 70,
      "max": [
        1.0,
        1.0,
        2.1267199516296387
      ],
      "min": [
        -0.6987448930740356,
        -1.52799654006958,
        -0.029205381870269775
      ],
      "type": "VEC3"
    },
    {
      "bufferView": 2,
      "byteOffset": 840,
      "componentType": 5126,
      "count": 70,
      "max": [
        1.0,
        1.0,
        0.028149109333753586
      ],
      "min": [
        -1.0,
        -1.0,
        -0.9968352317810059
      ],
      "type": "VEC3"
    },
    {
      "bufferView": 1,
      "componentType": 5126,
      "count": 70,
      "max": [
        0.8891299962997437,
        1.0
      ],
      "min": [
        0.0,
        0.0
      ],
      "type": "VEC2"
    },
    {
      "bufferView": 0,
      "componentType": 5125,
      "count": 144,
      "type": "SCALAR"
    },
    {
      "bufferView": 2,
      "byteOffset": 1680,
      "componentType": 5126,
      "count": 65,
      "max": [
        -0.5618351697921753,
        -0.42882317304611206,
        1.5190411806106567
      ],
      "min": [
        -0.6784944534301758,
        -1.1152105331420898,
        0.016870945692062378
      ],
      "type": "VEC3"
    },
    {
      "bufferView": 2,
      "byteOffset": 2460,
      "componentType": 5126,
      "count": 65,
      "max": [
        1.0,
        0.07891368865966797,
        3.698008299579669e-07
      ],
      "min": [
        -1.0,
        -1.4566087429557228e-06,
        -1.0
      ],
      "type": "VEC3"
    },
    {
      "bufferView": 1,
      "byteOffset": 560,
      "componentType": 5126,
      "count": 65,
      "max": [
        0.9876277446746826,
        0.964120090007782
      ],
      "min": [
        0.295246422290802,
        0.0859052836894989
      ],
      "type": "VEC2"
    },
    {
      "bufferView": 0,
      "byteOffset": 576,
      "componentType": 5125,
      "count": 171,
      "type": "SCALAR"
    },
    {
      "bufferView": 2,
      "byteOffset": 3240,
      "componentType": 5126,
      "count": 42,
      "max": [
        -0.5618351697921753,
        -0.5110687613487244,
        1.197127342224121
      ],
      "min": [
        -0.6784946918487549,
        -1.0329649448394775,
        0.016870945692062378
      ],
      "type": "VEC3"
    },
    {
      "bufferView": 2,
      "byteOffset": 3744,
      "componentType": 5126,
      "count": 42,
      "max": [
        0.0,
        1.0,
        0.00010556701454333961
      ],
      "min": [
        0.0,
        -1.0,
        -1.0
      ],
      "type": "VEC3"
    },
    {
      "bufferView": 1,
      "byteOffset": 1080,
      "componentType": 5126,
      "count": 42,
      "max": [
        0.29868096113204956,
        0.8673641681671143
      ],
      "min": [
        0.2545524835586548,
        0.5621267557144165
      ],
      "type": "VEC2"
    },
    {
      "bufferView": 0,
      "byteOffset": 1260,
      "componentType": 5125,
      "count": 108,
      "type": "SCALAR"
    },
    {
      "bufferView": 2,
      "byteOffset": 4248,
      "componentType": 5126,
      "count": 6,
      "max": [
        0.38709163665771484,
        1.0,
        1.215579628944397
      ],
      "min": [
        -0.19944095611572266,
        1.0,
        -0.015710681676864624
      ],
      "type": "VEC3"
    },
    {
      "bufferView": 2,
      "byteOffset": 4320,
      "componentType": 5126,
      "count": 6,
      "max": [
        0.0,
        -1.0,
        0.0
      ],
      "min": [
        0.0,
        -1.0,
        0.0
      ],
      "type": "VEC3"
    },
    {
      "bufferView": 1,
      "byteOffset": 1416,
      "componentType": 5126,
      "count": 6,
      "max": [
        1.0,
        0.2565273344516754
      ],
      "min": [
        0.8891299962997437,
        0.0
      ],
      "type": "VEC2"
    },
    {
      "bufferView": 0,
      "byteOffset": 1692,
      "componentType": 5125,
      "count": 12,
      "type": "SCALAR"
    },
    {
      "bufferView": 2,
      "byteOffset": 4392,
      "componentType": 5126,
      "count": 142,
      "max": [
        1.2077324390411377,
        1.0,
        2.212303876876831
      ],
      "min": [
        -0.913630485534668,
        -1.3670201301574707,
        1.4510104656219482
      ],
      "type": "VEC3"
    },
    {
      "bufferView": 2,
      "byteOffset": 6096,
      "componentType": 5126,
      "count": 142,
      "max": [
        1.0,
        1.0,
        1.0
      ],
      "min": [
        -1.0,
        -1.0,
        -1.0
      ],
      "type": "VEC3"
    },
    {
      "bufferView": 1,
      "byteOffset": 1464,
      "componentType": 5126,
      "count": 142,
      "max": [
        0.8484901785850525,
        0.9999999403953552
      ],
      "min": [
        0.0,
        0.0
      ],
      "type": "VEC2"
    },
    {
      "bufferView": 0,
      "byteOffset": 1740,
      "componentType": 5125,
      "count": 246,
      "type": "SCALAR"
    },
    {
      "bufferView": 2,
      "byteOffset": 7800,
      "componentType": 5126,
      "count": 84,
      "max": [
        -0.5618351697921753,
        -0.42882317304611206,
        1.2794721126556396
      ],
      "min": [
        -0.6445779800415039,
        -1.1152105331420898,
        0.01627388596534729
      ],
      "type": "VEC3"
    },
    {
      "bufferView": 2,
      "byteOffset": 8808,
      "componentType": 5126,
      "count": 84,
      "max": [
        1.0,
        1.0,
        1.0
      ],
      "min": [
        -1.0,
        -1.0,
        -1.0
      ],
      "type": "VEC3"
    },
    {
      "bufferView": 1,
      "byteOffset": 2600,
      "componentType": 5126,
      "count": 84,
      "max": [
        1.0,
        1.0
      ],
      "min": [
        0.0,
        0.0
      ],
      "type": "VEC2"
    },
    {
      "bufferView": 0,
      "byteOffset": 2724,
      "componentType": 5125,
      "count": 216,
      "type": "SCALAR"
    },
    {
      "bufferView": 2,
      "byteOffset": 9816,
      "componentType": 5126,
      "count": 226,
      "max": [
        0.9807863235473633,
        0.9807853698730469,
        0.5108000040054321
      ],
      "min": [
        -0.9807920455932617,
        -0.9807853698730469,
        -2.2287631034851074
      ],
      "type": "VEC3"
    },
    {
      "bufferView": 2,
      "byteOffset": 12528,
      "componentType": 5126,
      "count": 226,
      "max": [
        1.0,
        1.0,
        1.0
      ],
      "min": [
        -1.0,
        -1.0,
        -1.0
      ],
      "type": "VEC3"
    },
    {
      "bufferView": 1,
      "byteOffset": 3272,
      "componentType": 5126,
      "count": 226,
      "max": [
        0.6526115536689758,
        0.9998732805252075
      ],
      "min": [
        0.00012658859486691654,
        0.00012658859486691654
      ],
      "type": "VEC2"
    },
    {
      "bufferView": 0,
      "byteOffset": 3588,
      "componentType": 5125,
      "count": 960,
      "type": "SCALAR"
    },
    {
      "bufferView": 2,
      "byteOffset": 15240,
      "componentType": 5126,
      "count": 52,
      "max": [
        -0.6049408912658691,
        0.6696165204048157,
        1.0271174907684326
      ],
      "min": [
        -0.6454717516899109,
        0.14903900027275085,
        0.538415789604187
      ],
      "type": "VEC3"
    },
    {
      "bufferView": 2,
      "byteOffset": 15864,
      "componentType": 5126,
      "count": 52,
      "max": [
        0.0,
        1.0,
        1.0
      ],
      "min": [
        -1.0,
        -1.0,
        -1.0
      ],
      "type": "VEC3"
    },
    {
      "bufferView": 1,
      "byteOffset": 5080,
      "componentType": 5126,
      "count": 52,
      "max": [
        1.0,
        0.97649085521698
      ],
      "min": [
        0.0,
        0.0
      ],
      "type": "VEC2"
    },
    {
      "bufferView": 0,
      "byteOffset": 7428,
      "componentType": 5125,
      "count": 78,
      "type": "SCALAR"
    },
    {
      "bufferView": 2,
      "byteOffset": 16488,
      "componentType": 5126,
      "count": 60,
      "max": [
        0.45346546173095703,
        1.3775913715362549,
        2.420718193054199
      ],
      "min": [
        -0.199441060423851,
        0.9284018874168396,
        -0.026989221572875977
      ],
      "type": "VEC3"
    },
    {
      "bufferView": 2,
      "byteOffset": 17208,
      "componentType": 5126,
      "count": 60,
      "max": [
        1.0,
        1.0,
        0.9997777342796326
      ],
      "min": [
        -1.0,
        -1.0,
        -0.9994004368782043
      ],
      "type": "VEC3"
    },
    {
      "bufferView": 1,
      "byteOffset": 5496,
      "componentType": 5126,
      "count": 60,
      "max": [
        0.9759834408760071,
        1.0
      ],
      "min": [
        0.0,
        0.0
      ],
      "type": "VEC2"
    },
    {
      "bufferView": 0,
      "byteOffset": 7740,
      "componentType": 5125,
      "count": 132,
      "type": "SCALAR"
    },
    {
      "bufferView": 2,
      "byteOffset": 17928,
      "componentType": 5126,
      "count": 8,
      "max": [
        0.38709181547164917,
        1.3059933185577393,
        2.1682939529418945
      ],
      "min": [
        -0.199441060423851,
        1.0,
        -0.026989221572875977
      ],
      "type": "VEC3"
    },
    {
      "bufferView": 2,
      "byteOffset": 18024,
      "componentType": 5126,
      "count": 8,
      "max": [
        0.029797064140439034,
        0.0,
        0.9995560050010681
      ],
      "min": [
        -0.02300133928656578,
        0.0,
        -0.9997354745864868
      ],
      "type": "VEC3"
    },
    {
      "bufferView": 1,
      "byteOffset": 5976,
      "componentType": 5126,
      "count": 8,
      "max": [
        0.8681001663208008,
        0.4048715829849243
      ],
      "min": [
        0.7323786616325378,
        0.0
      ],
      "type": "VEC2"
    },
    {
      "bufferView": 0,
      "byteOffset": 8268,
      "componentType": 5125,
      "count": 12,
      "type": "SCALAR"
    },
    {
      "bufferView": 2,
      "byteOffset": 18120,
      "componentType": 5126,
      "count": 16,
      "max": [
        0.45346546173095703,
        1.3775913715362549,
        2.4176814556121826
      ],
      "min": [
        -0.13196010887622833,
        0.9284018874168396,
        2.3029017448425293
      ],
      "type": "VEC3"
    },
    {
      "bufferView": 2,
      "byteOffset": 18312,
      "componentType": 5126,
      "count": 16,
      "max": [
        0.9998849630355835,
        1.0,
        0.015169171616435051
      ],
      "min": [
        -0.9998849630355835,
        -1.0,
        -0.015168841928243637
      ],
      "type": "VEC3"
    },
    {
      "bufferView": 1,
      "byteOffset": 6040,
      "componentType": 5126,
      "count": 16,
      "max": [
        1.0,
        0.9803076386451721
      ],
      "min": [
        0.6434723138809204,
        0.0
      ],
      "type": "VEC2"
    },
    {
      "bufferView": 0,
      "byteOffset": 8316,
      "componentType": 5125,
      "count": 24,
      "type": "SCALAR"
    },
    {
      "bufferView": 2,
      "byteOffset": 18504,
      "componentType": 5126,
      "count": 1282,
      "max": [
        8.858413696289063,
        2.3610284328460693,
        0.2260838747024536
      ],
      "min": [
        -1.3821868896484375,
        -12.70350170135498,
        -0.07781219482421875
      ],
      "type": "VEC3"
    },
    {
      "bufferView": 2,
      "byteOffset": 33888,
      "componentType": 5126,
      "count": 1282,
      "max": [
        1.0,
        1.0,
        1.0
      ],
      "min": [
        -1.0,
        -1.0,
        -1.0
      ],
      "type": "VEC3"
    },
    {
      "bufferView": 1,
      "byteOffset": 6168,
      "componentType": 5126,
      "count": 1282,
      "max": [
        1.0,
        0.9999999403953552
      ],
      "min": [
        0.0,
        0.0
      ],
      "type": "VEC2"
    },
    {
      "bufferView": 0,
      "byteOffset": 8412,
      "componentType": 5125,
      "count": 2916,
      "type": "SCALAR"
    },
    {
      "bufferView": 2,
      "byteOffset": 49272,
      "componentType": 5126,
      "count": 124,
      "max": [
        1.0,
        1.021979808807373,
        0.40470442175865173
      ],
      "min": [
        -1.0,
        -1.0604562759399414,
        0.0
      ],
      "type": "VEC3"
    },
    {
      "bufferView": 2,
      "byteOffset": 50760,
      "componentType": 5126,
      "count": 124,
      "max": [
        1.0,
        1.0,
        1.0
      ],
      "min": [
        -1.0,
        -1.0,
        -1.0
      ],
      "type": "VEC3"
    },
    {
      "bufferView": 1,
      "byteOffset": 16424,
      "componentType": 5126,
      "count": 124,
      "max": [
        0.9947465658187866,
        0.9980447888374329
      ],
      "min": [
        0.0,
        0.0
      ],
      "type": "VEC2"
    },
    {
      "bufferView": 0,
      "byteOffset": 20076,
      "componentType": 5125,
      "count": 324,
      "type": "SCALAR"
    },
    {
      "bufferView": 2,
      "byteOffset": 52248,
      "componentType": 5126,
      "count": 124,
      "max": [
        1.0,
        1.021979808807373,
        0.40470442175865173
      ],
      "min": [
        -1.0,
        -1.0604562759399414,
        0.0
      ],
      "type": "VEC3"
    },
    {
      "bufferView": 2,
      "byteOffset": 53736,
      "componentType": 5126,
      "count": 124,
      "max": [
        1.0,
        1.0,
        1.0
      ],
      "min": [
        -1.0,
        -1.0,
        -1.0
      ],
      "type": "VEC3"
    },
    {
      "bufferView": 1,
      "byteOffset": 17416,
      "componentType": 5126,
      "count": 124,
      "max": [
        0.998484194278717,
        0.9961837530136108
      ],
      "min": [
        0.19727638363838196,
        0.0
      ],
      "type": "VEC2"
    },
    {
      "bufferView": 0,
      "byteOffset": 21372,
      "componentType": 5125,
      "count": 324,
      "type": "SCALAR"
    },
    {
      "bufferView": 2,
      "byteOffset": 55224,
      "componentType": 5126,
      "count": 124,
      "max": [
        1.0,
        1.021979808807373,
        0.40470442175865173
      ],
      "min": [
        -1.0,
        -1.0604562759399414,
        0.0
      ],
      "type": "VEC3"
    },
    {
      "bufferView": 2,
      "byteOffset": 56712,
      "componentType": 5126,
      "count": 124,
      "max": [
        1.0,
        1.0,
        1.0
      ],
      "min": [
        -1.0,
        -1.0,
        -1.0
      ],
      "type": "VEC3"
    },
    {
      "bufferView": 1,
      "byteOffset": 18408,
      "componentType": 5126,
      "count": 124,
      "max": [
        0.9988694190979004,
        1.0
      ],
      "min": [
        0.03864434361457825,
        0.0
      ],
      "type": "VEC2"
    },
    {
      "bufferView": 0,
      "byteOffset": 22668,
      "componentType": 5125,
      "count": 324,
      "type": "SCALAR"
    },
    {
      "bufferView": 2,
      "byteOffset": 58200,
      "componentType": 5126,
      "count": 124,
      "max": [
        1.0,
        1.021979808807373,
        0.40470442175865173
      ],
      "min": [
        -1.0,
        -1.0604562759399414,
        0.0
      ],
      "type": "VEC3"
    },
    {
      "bufferView": 2,
      "byteOffset": 59688,
      "componentType": 5126,
      "count": 124,
      "max": [
        1.0,
        1.0,
        1.0
      ],
      "min": [
        -1.0,
        -1.0,
        -1.0
      ],
      "type": "VEC3"
    },
    {
      "bufferView": 1,
      "byteOffset": 19400,
      "componentType": 5126,
      "count": 124,
      "max": [
        1.0,
        0.9961837530136108
      ],
      "min": [
        0.0,
        0.0
      ],
      "type": "VEC2"
    },
    {
      "bufferView": 0,
      "byteOffset": 23964,
      "componentType": 5125,
      "count": 324,
      "type": "SCALAR"
    },
    {
      "bufferView": 2,
      "byteOffset": 61176,
      "componentType": 5126,
      "count": 135,
      "max": [
        1.0,
        1.021979808807373,
        0.40470442175865173
      ],
      "min": [
        -1.0,
        -1.0604562759399414,
        0.0
      ],
      "type": "VEC3"
    },
    {
      "bufferView": 2,
      "byteOffset": 62796,
      "componentType": 5126,
      "count": 135,
      "max": [
        1.0,
        1.0,
        1.0
      ],
      "min": [
        -1.0,
        -1.0,
        -1.0
      ],
      "type": "VEC3"
    },
    {
      "bufferView": 1,
      "byteOffset": 20392,
      "componentType": 5126,
      "count": 135,
      "max": [
        0.9888399839401245,
        1.0
      ],
      "min": [
        0.0,
        0.0
      ],
      "type": "VEC2"
    },
    {
      "bufferView": 0,
      "byteOffset": 25260,
      "componentType": 5125,
      "count": 324,
      "type": "SCALAR"
    },
    {
      "bufferView": 2,
      "byteOffset": 64416,
      "componentType": 5126,
      "count": 124,
      "max": [
        1.0,
        1.021979808807373,
        0.40470442175865173
      ],
      "min": [
        -1.0,
        -1.0604562759399414,
        0.0
      ],
      "type": "VEC3"
    },
    {
      "bufferView": 2,
      "byteOffset": 65904,
      "componentType": 5126,
      "count": 124,
      "max": [
        1.0,
        1.0,
        1.0
      ],
      "min": [
        -1.0,
        -1.0,
        -1.0
      ],
      "type": "VEC3"
    },
    {
      "bufferView": 1,
      "byteOffset": 21472,
      "componentType": 5126,
      "count": 124,
      "max": [
        1.0,
        0.9980447888374329
      ],
      "min": [
        0.0,
        0.1924375295639038
      ],
      "type": "VEC2"
    },
    {
      "bufferView": 0,
      "byteOffset": 26556,
      "componentType": 5125,
      "count": 324,
      "type": "SCALAR"
    },
    {
      "bufferView": 2,
      "byteOffset": 67392,
      "componentType": 5126,
      "count": 124,
      "max": [
        1.0,
        1.021979808807373,
        0.40470442175865173
      ],
      "min": [
        -1.0,
        -1.0604562759399414,
        0.0
      ],
      "type": "VEC3"
    },
    {
      "bufferView": 2,
      "byteOffset": 68880,
      "componentType": 5126,
      "count": 124,
      "max": [
        1.0,
        1.0,
        1.0
      ],
      "min": [
        -1.0,
        -1.0,
        -1.0
      ],
      "type": "VEC3"
    },
    {
      "bufferView": 1,
      "byteOffset": 22464,
      "componentType": 5126,
      "count": 124,
      "max": [
        0.9929060935974121,
        1.0
      ],
      "min": [
        0.11593303084373474,
        0.1924525797367096
      ],
      "type": "VEC2"
    },
    {
      "bufferView": 0,
      "byteOffset": 27852,
      "componentType": 5125,
      "count": 324,
      "type": "SCALAR"
    },
    {
      "bufferView": 2,
      "byteOffset": 70368,
      "componentType": 5126,
      "count": 124,
      "max": [
        1.0,
        1.021979808807373,
        0.40470442175865173
      ],
      "min": [
        -1.0,
        -1.0604562759399414,
        0.0
      ],
      "type": "VEC3"
    },
    {
      "bufferView": 2,
      "byteOffset": 71856,
      "componentType": 5126,
      "count": 124,
      "max": [
        1.0,
        1.0,
        1.0
      ],
      "min": [
        -1.0,
        -1.0,
        -1.0
      ],
      "type": "VEC3"
    },
    {
      "bufferView": 1,
      "byteOffset": 23456,
      "componentType": 5126,
      "count": 124,
      "max": [
        0.9966437816619873,
        1.0
      ],
      "min": [
        0.0772886872291565,
        0.0
      ],
      "type": "VEC2"
    },
    {
      "bufferView": 0,
      "byteOffset": 29148,
      "componentType": 5125,
      "count": 324,
      "type": "SCALAR"
    },
    {
      "bufferView": 2,
      "byteOffset": 73344,
      "componentType": 5126,
      "count": 1762,
      "max": [
        1.9285391569137573,
        2.148341655731201,
        2.330130100250244
      ],
      "min": [
        -1.89386785030365,
        -1.6851264238357544,
        -0.06672555208206177
      ],
      "type": "VEC3"
    },
    {
      "bufferView": 2,
      "byteOffset": 94488,
      "componentType": 5126,
      "count": 1762,
      "max": [
        0.9989238381385803,
        0.9895588755607605,
        0.9995519518852234
      ],
      "min": [
        -0.9979835748672485,
        -0.989558756351471,
        -0.9999998807907104
      ],
      "type": "VEC3"
    },
    {
      "bufferView": 0,
      "byteOffset": 30444,
      "componentType": 5125,
      "count": 2622,
      "type": "SCALAR"
    },
    {
      "bufferView": 2,
      "byteOffset": 115632,
      "componentType": 5126,
      "count": 124,
      "max": [
        1.0,
        1.021979808807373,
        0.40470442175865173
      ],
      "min": [
        -1.0,
        -1.0604562759399414,
        0.0
      ],
      "type": "VEC3"
    },
    {
      "bufferView": 2,
      "byteOffset": 117120,
      "componentType": 5126,
      "count": 124,
      "max": [
        1.0,
        1.0,
        1.0
      ],
      "min": [
        -1.0,
        -1.0,
        -1.0
      ],
      "type": "VEC3"
    },
    {
      "bufferView": 1,
      "byteOffset": 24448,
      "componentType": 5126,
      "count": 124,
      "max": [
        0.9966437816619873,
        1.0
      ],
      "min": [
        0.0772886872291565,
        0.0
      ],
      "type": "VEC2"
    },
    {
      "bufferView": 0,
      "byteOffset": 40932,
      "componentType": 5125,
      "count": 324,
      "type": "SCALAR"
    },
    {
      "bufferView": 2,
      "byteOffset": 118608,
      "componentType": 5126,
      "count": 34,
      "max": [
        0.9999996423721313,
        1.0000003576278687,
        0.7560167908668518
      ],
      "min": [
        -1.0000009536743164,
        -1.000000238418579,
        -0.10163919627666473
      ],
      "type": "VEC3"
    },
    {
      "bufferView": 2,
      "byteOffset": 119016,
      "componentType": 5126,
      "count": 34,
      "max": [
        1.0,
        4.924903507230738e-08,
        0.0
      ],
      "min": [
        0.0,
        -3.9807257490309667e-10,
        -1.0
      ],
      "type": "VEC3"
    },
    {
      "bufferView": 1,
      "byteOffset": 25440,
      "componentType": 5126,
      "count": 34,
      "max": [
        0.625,
        0.75
      ],
      "min": [
        0.125,
        0.5
      ],
      "type": "VEC2"
    },
    {
      "bufferView": 0,
      "byteOffset": 42228,
      "componentType": 5125,
      "count": 96,
      "type": "SCALAR"
    },
    {
      "bufferView": 2,
      "byteOffset": 119424,
      "componentType": 5126,
      "count": 48,
      "max": [
        0.9398519992828369,
        1.0185637474060059,
        -0.23668648302555084
      ],
      "min": [
        -0.9361355304718018,
        -0.8574296236038208,
        -0.32383009791374207
      ],
      "type": "VEC3"
    },
    {
      "bufferView": 2,
      "byteOffset": 120000,
      "componentType": 5126,
      "count": 48,
      "max": [
        1.0,
        1.0,
        1.0
      ],
      "min": [
        -1.0,
        -1.0,
        -1.0
      ],
      "type": "VEC3"
    },
    {
      "bufferView": 1,
      "byteOffset": 25712,
      "componentType": 5126,
      "count": 48,
      "max": [
        1.0,
        1.0
      ],
      "min": [
        0.0,
        0.0
      ],
      "type": "VEC2"
    },
    {
      "bufferView": 0,
      "byteOffset": 42612,
      "componentType": 5125,
      "count": 84,
      "type": "SCALAR"
    },
    {
      "bufferView": 2,
      "byteOffset": 120576,
      "componentType": 5126,
      "count": 122,
      "max": [
        -0.6784944534301758,
        -0.42882317304611206,
        1.2794721126556396
      ],
      "min": [
        -0.7359933853149414,
        -1.1152105331420898,
        0.016870945692062378
      ],
      "type": "VEC3"
    },
    {
      "bufferView": 2,
      "byteOffset": 122040,
      "componentType": 5126,
      "count": 122,
      "max": [
        0.0,
        1.0,
        1.0
      ],
      "min": [
        -1.0,
        -1.0,
        -1.0
      ],
      "type": "VEC3"
    },
    {
      "bufferView": 1,
      "byteOffset": 26096,
      "componentType": 5126,
      "count": 122,
      "max": [
        0.9999996423721313,
        0.9998652338981628
      ],
      "min": [
        -0.011512935161590576,
        -0.008046388626098633
      ],
      "type": "VEC2"
    },
    {
      "bufferView": 0,
      "byteOffset": 42948,
      "componentType": 5125,
      "count": 324,
      "type": "SCALAR"
    },
    {
      "bufferView": 2,
      "byteOffset": 123504,
      "componentType": 5126,
      "count": 8,
      "max": [
        -0.6784944534301758,
        -0.42882317304611206,
        0.016870945692062378
      ],
      "min": [
        -0.7359933853149414,
        -1.1152105331420898,
        0.016870945692062378
      ],
      "type": "VEC3"
    },
    {
      "bufferView": 2,
      "byteOffset": 123600,
      "componentType": 5126,
      "count": 8,
      "max": [
        0.0,
        0.0,
        -1.0
      ],
      "min": [
        0.0,
        0.0,
        -1.0
      ],
      "type": "VEC3"
    },
    {
      "bufferView": 1,
      "byteOffset": 27072,
      "componentType": 5126,
      "count": 8,
      "max": [
        1.0,
        0.7995760440826416
      ],
      "min": [
        0.9409590363502502,
        0.6691392064094543
      ],
      "type": "VEC2"
    },
    {
      "bufferView": 0,
      "byteOffset": 44244,
      "componentType": 5125,
      "count": 12,
      "type": "SCALAR"
    },
    {
      "bufferView": 2,
      "byteOffset": 123696,
      "componentType": 5126,
      "count": 24,
      "max": [
        -0.6049408912658691,
        0.7410699129104614,
        1.0985708236694336
      ],
      "min": [
        -0.6987448930740356,
        0.0775856077671051,
        0.46696236729621887
      ],
      "type": "VEC3"
    },
    {
      "bufferView": 2,
      "byteOffset": 123984,
      "componentType": 5126,
      "count": 24,
      "max": [
        0.0,
        1.0,
        1.0
      ],
      "min": [
        -1.0,
        -1.0,
        -1.0
      ],
      "type": "VEC3"
    },
    {
      "bufferView": 1,
      "byteOffset": 27136,
      "componentType": 5126,
      "count": 24,
      "max": [
        0.9299415349960327,
        0.8732765913009644
      ],
      "min": [
        0.0,
        0.0
      ],
      "type": "VEC2"
    },
    {
      "bufferView": 0,
      "byteOffset": 44292,
      "componentType": 5125,
      "count": 48,
      "type": "SCALAR"
    },
    {
      "bufferView": 2,
      "byteOffset": 124272,
      "componentType": 5126,
      "count": 4,
      "max": [
        -0.6049408912658691,
        0.6696165204048157,
        1.0271174907684326
      ],
      "min": [
        -0.6049408912658691,
        0.14903900027275085,
        0.538415789604187
      ],
      "type": "VEC3"
    },
    {
      "bufferView": 2,
      "byteOffset": 124320,
      "componentType": 5126,
      "count": 4,
      "max": [
        -1.0,
        0.0,
        0.0
      ],
      "min": [
        -1.0,
        0.0,
        0.0
      ],
      "type": "VEC3"
    },
    {
      "bufferView": 1,
      "byteOffset": 27328,
      "componentType": 5126,
      "count": 4,
      "max": [
        0.7965505719184875,
        0.38393959403038025
      ],
      "min": [
        0.44907933473587036,
        0.0
      ],
      "type": "VEC2"
    },
    {
      "bufferView": 0,
      "byteOffset": 44484,
      "componentType": 5125,
      "count": 6,
      "type": "SCALAR"
    },
    {
      "bufferView": 2,
      "byteOffset": 124368,
      "componentType": 5126,
      "count": 24,
      "max": [
        -0.6049408912658691,
        0.6696165204048157,
        1.0271174907684326
      ],
      "min": [
        -0.6454717516899109,
        0.14903900027275085,
        0.538415789604187
      ],
      "type": "VEC3"
    },
    {
      "bufferView": 2,
      "byteOffset": 124656,
      "componentType": 5126,
      "count": 24,
      "max": [
        1.0,
        1.0,
        0.0
      ],
      "min": [
        -1.0,
        -1.0,
        0.0
      ],
      "type": "VEC3"
    },
    {
      "bufferView": 1,
      "byteOffset": 27360,
      "componentType": 5126,
      "count": 24,
      "max": [
        1.0,
        1.0
      ],
      "min": [
        0.0,
        0.0
      ],
      "type": "VEC2"
    },
    {
      "bufferView": 0,
      "byteOffset": 44508,
      "componentType": 5125,
      "count": 42,
      "type": "SCALAR"
    },
    {
      "bufferView": 2,
      "byteOffset": 124944,
      "componentType": 5126,
      "count": 4,
      "max": [
        -0.6049408912658691,
        0.6261233687400818,
        0.9836243391036987
      ],
      "min": [
        -0.6155580878257751,
        0.19253213703632355,
        0.5819089412689209
      ],
      "type": "VEC3"
    },
    {
      "bufferView": 2,
      "byteOffset": 124992,
      "componentType": 5126,
      "count": 4,
      "max": [
        -0.9997003674507141,
        -0.02447936125099659,
        0.0
      ],
      "min": [
        -0.9997003674507141,
        -0.02447936125099659,
        0.0
      ],
      "type": "VEC3"
    },
    {
      "bufferView": 1,
      "byteOffset": 27552,
      "componentType": 5126,
      "count": 4,
      "max": [
        1.0,
        1.0
      ],
      "min": [
        0.0,
        0.0
      ],
      "type": "VEC2"
    },
    {
      "bufferView": 0,
      "byteOffset": 44676,
      "componentType": 5125,
      "count": 6,
      "type": "SCALAR"
    }
  ],
  "asset": {
    "extras": {
      "author": "Omkar_suryavanshi (https://sketchfab.com/Omkar_suryavanshi)",
      "license": "CC-BY-4.0 (http://creativecommons.org/licenses/by/4.0/)",
      "source": "https://sketchfab.com/3d-models/low-poly-cartoon-home-a90011bff3f349ed91c4b29d9af0293d",
      "title": "Low poly cartoon Home"
    },
    "generator": "Sketchfab-12.68.0",
    "version": "2.0"
  },
  "bufferViews": [
    {
      "buffer": 0,
      "byteLength": 44700,
      "name": "floatBufferViews",
      "target": 34963
    },
    {
      "buffer": 0,
      "byteLength": 27584,
      "byteOffset": 44700,
      "byteStride": 8,
      "name": "floatBufferViews",
      "target": 34962
    },
    {
      "buffer": 0,
      "byteLength": 125040,
      "byteOffset": 72284,
      "byteStride": 12,
      "name": "floatBufferViews",
      "target": 34962
    }
  ],
  "buffers": [
    {
      "byteLength": 197324,
      "uri": "scene.bin"
    }
  ],
  "materials": [
    {
      "doubleSided": true,
      "name": "home_wall",
      "pbrMetallicRoughness": {
        "baseColorFactor": [
          0.426213,
          0.0888931,
          0.0130929,
          1.0
        ],
        "metallicFactor": 0.0,
        "roughnessFactor": 0.9653108631175291
      }
    },
    {
      "doubleSided": true,
      "name": "Material.007",
      "pbrMetallicRoughness": {
        "baseColorFactor": [
          0.8,
          0.8,
          0.8,
          1.0
        ],
        "metallicFactor": 0.0,
        "roughnessFactor": 0.8211145618000169
      }
    },
    {
      "doubleSided": true,
      "name": "door_border",
      "pbrMetallicRoughness": {
        "baseColorFactor": [
          0.275436,
          0.0403619,
          0.0,
          1.0
        ],
        "metallicFactor": 0.0,
        "roughnessFactor": 0.9804512820362126
      }
    },
    {
      "doubleSided": true,
      "name": "Material.002",
      "pbrMetallicRoughness": {
        "baseColorFactor": [
          0.589418,
          0.240158,
          0.0480016,
          1.0
        ],
        "metallicFactor": 0.0,
        "roughnessFactor": 0.9327978874202119
      }
    },
    {
      "doubleSided": true,
      "name": "roof",
      "pbrMetallicRoughness": {
        "baseColorFactor": [
          1.0,
          0.0880598,
          0.00937359,
          1.0
        ],
        "metallicFactor": 0.0,
        "roughnessFactor": 0.9577457620583607
      }
    },
    {
      "doubleSided": true,
      "name": "doore_inside",
      "pbrMetallicRoughness": {
        "baseColorFactor": [
          0.8,
          0.00374024,
          0.0,
          1.0
        ],
        "metallicFactor": 0.0,
        "roughnessFactor": 0.961370803261276
      }
    },
    {
      "doubleSided": true,
      "name": "door_handle",
      "pbrMetallicRoughness": {
        "baseColorFactor": [
          0.905415,
          0.698541,
          0.00333509,
          1.0
        ],
        "metallicFactor": 0.0,
        "roughnessFactor": 0.8382450573409385
      }
    },
    {
      "doubleSided": true,
      "name": "inside_window",
      "pbrMetallicRoughness": {
        "baseColorFactor": [
          0.12284,
          0.235119,
          0.8,
          1.0
        ],
        "metallicFactor": 0.0,
        "roughnessFactor": 0.9436437319133283
      }
    },
    {
      "doubleSided": true,
      "name": "chimni",
      "pbrMetallicRoughness": {
        "baseColorFactor": [
          1.0,
          0.172007,
          0.0,
          1.0
        ],
        "metallicFactor": 0.0,
        "roughnessFactor": 0.9249532192721472
      }
    },
    {
      "doubleSided": true,
      "name": "Material.010",
      "pbrMetallicRoughness": {
        "baseColorFactor": [
          0.8,
          0.8,
          0.8,
          1.0
        ],
        "metallicFactor": 0.0,
        "roughnessFactor": 0.8211145618000169
      }
    },
    {
      "doubleSided": true,
      "name": "chimni_border",
      "pbrMetallicRoughness": {
        "baseColorFactor": [
          0.8,
          0.297736,
          0.0,
          1.0
        ],
        "metallicFactor": 0.0,
        "roughnessFactor": 0.9143539483025318
      }
    },
    {
      "doubleSided": true,
      "name": "roof_tiles",
      "pbrMetallicRoughness": {
        "baseColorFactor": [
          0.323557,
          0.0208828,
          0.0136862,
          1.0
        ],
        "metallicFactor": 0.0,
        "roughnessFactor": 0.9817662573128273
      }
    },
    {
      "doubleSided": true,
      "name": "last_brick",
      "pbrMetallicRoughness": {
        "baseColorFactor": [
          0.8,
          0.0193453,
          0.0,
          1.0
        ],
        "metallicFactor": 0.0,
        "roughnessFactor": 0.9588751861726401
      }
    },
    {
      "doubleSided": true,
      "name": "chimni_bricks",
      "pbrMetallicRoughness": {
        "baseColorFactor": [
          0.8,
          0.049124,
          0.00431089,
          1.0
        ],
        "metallicFactor": 0.0,
        "roughnessFactor": 0.9540432730296949
      }
    },
    {
      "doubleSided": true,
      "name": "antina",
      "pbrMetallicRoughness": {
        "baseColorFactor": [
          0.0793772,
          0.0827719,
          0.21157,
          1.0
        ],
        "metallicFactor": 0.0,
        "roughnessFactor": 0.9795736510429928
      }
    },
    {
      "doubleSided": true,
      "name": "Material.001",
      "pbrMetallicRoughness": {
        "baseColorFactor": [
          0.5565440856527557,
          0.5786393036869448,
          0.7494345424331753,
          1.0
        ],
        "metallicFactor": 0.0,
        "roughnessFactor": 0.9686999027167296
      }
    },
    {
      "doubleSided": true,
      "name": "base",
      "pbrMetallicRoughness": {
        "baseColorFactor": [
          0.005785369999999979,
          0.349327,
          0.0,
          1.0
        ],
        "metallicFactor": 0.0,
        "roughnessFactor": 0.9438593453802941
      }
    },
    {
      "doubleSided": true,
      "name": "inner_window_border",
      "pbrMetallicRoughness": {
        "baseColorFactor": [
          1.0,
          0.113715,
          0.0,
          1.0
        ],
        "metallicFactor": 0.0,
        "roughnessFactor": 0.934275484699564
      }
    }
  ],
  "meshes": [
    {
      "name": "Plane_home wall_0",
      "primitives": [
        {
          "attributes": {
            "NORMAL": 1,
            "POSITION": 0,
            "TEXCOORD_0": 2
          },
          "indices": 3,
          "material": 0,
          "mode": 4
        }
      ]
    },
    {
      "name": "Plane_Material.007_0",
      "primitives": [
        {
          "attributes": {
            "NORMAL": 5,
            "POSITION": 4,
            "TEXCOORD_0": 6
          },
          "indices": 7,
          "material": 1,
          "mode": 4
        }
      ]
    },
    {
      "name": "Plane_door border_0",
      "primitives": [
        {
          "attributes": {
            "NORMAL": 9,
            "POSITION": 8,
            "TEXCOORD_0": 10
          },
          "indices": 11,
          "material": 2,
          "mode": 4
        }
      ]
    },
    {
      "name": "Plane_Material.002_0",
      "primitives": [
        {
          "attributes": {
            "NORMAL": 13,
            "POSITION": 12,
            "TEXCOORD_0": 14
          },
          "indices": 15,
          "material": 3,
          "mode": 4
        }
      ]
    },
    {
      "name": "Plane.001_roof_0",
      "primitives": [
        {
          "attributes": {
            "NORMAL": 17,
            "POSITION": 16,
            "TEXCOORD_0": 18
          },
          "indices": 19,
          "material": 4,
          "mode": 4
        }
      ]
    },
    {
      "name": "Plane.002_doore inside_0",
      "primitives": [
        {
          "attributes": {
            "NORMAL": 21,
            "POSITION": 20,
            "TEXCOORD_0": 22
          },
          "indices": 23,
          "material": 5,
          "mode": 4
        }
      ]
    },
    {
      "name": "Sphere_door handle_0",
      "primitives": [
        {
          "attributes": {
            "NORMAL": 25,
            "POSITION": 24,
            "TEXCOORD_0": 26
          },
          "indices": 27,
          "material": 6,
          "mode": 4
        }
      ]
    },
    {
      "name": "Plane.003_inside window_0",
      "primitives": [
        {
          "attributes": {
            "NORMAL": 29,
            "POSITION": 28,
            "TEXCOORD_0": 30
          },
          "indices": 31,
          "material": 7,
          "mode": 4
        }
      ]
    },
    {
      "name": "Plane.005_chimni_0",
      "primitives": [
        {
          "attributes": {
            "NORMAL": 33,
            "POSITION": 32,
            "TEXCOORD_0": 34
          },
          "indices": 35,
          "material": 8,
          "mode": 4
        }
      ]
    },
    {
      "name": "Plane.005_Material.010_0",
      "primitives": [
        {
          "attributes": {
            "NORMAL": 37,
            "POSITION": 36,
            "TEXCOORD_0": 38
          },
          "indices": 39,
          "material": 9,
          "mode": 4
        }
      ]
    },
    {
      "name": "Plane.005_chimni border_0",
      "primitives": [
        {
          "attributes": {
            "NORMAL": 41,
            "POSITION": 40,
            "TEXCOORD_0": 42
          },
          "indices": 43,
          "material": 10,
          "mode": 4
        }
      ]
    },
    {
      "name": "Plane.008_roof tiles_0",
      "primitives": [
        {
          "attributes": {
            "NORMAL": 45,
            "POSITION": 44,
            "TEXCOORD_0": 46
          },
          "indices": 47,
          "material": 11,
          "mode": 4
        }
      ]
    },
    {
      "name": "Plane.011_last brick_0",
      "primitives": [
        {
          "attributes": {
            "NORMAL": 49,
            "POSITION": 48,
            "TEXCOORD_0": 50
          },
          "indices": 51,
          "material": 12,
          "mode": 4
        }
      ]
    },
    {
      "name": "Plane.012_last brick_0",
      "primitives": [
        {
          "attributes": {
            "NORMAL": 53,
            "POSITION": 52,
            "TEXCOORD_0": 54
          },
          "indices": 55,
          "material": 12,
          "mode": 4
        }
      ]
    },
    {
      "name": "Plane.013_chimni bricks_0",
      "primitives": [
        {
          "attributes": {
            "NORMAL": 57,
            "POSITION": 56,
            "TEXCOORD_0": 58
          },
          "indices": 59,
          "material": 13,
          "mode": 4
        }
      ]
    },
    {
      "name": "Plane.014_chimni bricks_0",
      "primitives": [
        {
          "attributes": {
            "NORMAL": 61,
            "POSITION": 60,
            "TEXCOORD_0": 62
          },
          "indices": 63,
          "material": 13,
          "mode": 4
        }
      ]
    },
    {
      "name": "Plane.015_chimni bricks_0",
      "primitives": [
        {
          "attributes": {
            "NORMAL": 65,
            "POSITION": 64,
            "TEXCOORD_0": 66
          },
          "indices": 67,
          "material": 13,
          "mode": 4
        }
      ]
    },
    {
      "name": "Plane.016_chimni bricks_0",
      "primitives": [
        {
          "attributes": {
            "NORMAL": 69,
            "POSITION": 68,
            "TEXCOORD_0": 70
          },
          "indices": 71,
          "material": 13,
          "mode": 4
        }
      ]
    },
    {
      "name": "Plane.017_chimni bricks_0",
      "primitives": [
        {
          "attributes": {
            "NORMAL": 73,
            "POSITION": 72,
            "TEXCOORD_0": 74
          },
          "indices": 75,
          "material": 13,
          "mode": 4
        }
      ]
    },
    {
      "name": "Plane.020_chimni bricks_0",
      "primitives": [
        {
          "attributes": {
            "NORMAL": 77,
            "POSITION": 76,
            "TEXCOORD_0": 78
          },
          "indices": 79,
          "material": 13,
          "mode": 4
        }
      ]
    },
    {
      "name": "Vert_antina_0",
      "primitives": [
        {
          "attributes": {
            "NORMAL": 81,
            "POSITION": 80
          },
          "indices": 82,
          "material": 14,
          "mode": 4
        }
      ]
    },
    {
      "name": "Plane.059_chimni bricks_0",
      "primitives": [
        {
          "attributes": {
            "NORMAL": 84,
            "POSITION": 83,
            "TEXCOORD_0": 85
          },
          "indices": 86,
          "material": 13,
          "mode": 4
        }
      ]
    },
    {
      "name": "Cube.001_Material.001_0",
      "primitives": [
        {
          "attributes": {
            "NORMAL": 88,
            "POSITION": 87,
            "TEXCOORD_0": 89
          },
          "indices": 90,
          "material": 15,
          "mode": 4
        }
      ]
    },
    {
      "name": "Plane.006_base_0",
      "primitives": [
        {
          "attributes": {
            "NORMAL": 92,
            "POSITION": 91,
            "TEXCOORD_0": 93
          },
          "indices": 94,
          "material": 16,
          "mode": 4
        }
      ]
    },
    {
      "name": "Plane.007_door border_0",
      "primitives": [
        {
          "attributes": {
            "NORMAL": 96,
            "POSITION": 95,
            "TEXCOORD_0": 97
          },
          "indices": 98,
          "material": 2,
          "mode": 4
        }
      ]
    },
    {
      "name": "Plane.007_Material.007_0",
      "primitives": [
        {
          "attributes": {
            "NORMAL": 100,
            "POSITION": 99,
            "TEXCOORD_0": 101
          },
          "indices": 102,
          "material": 1,
          "mode": 4
        }
      ]
    },
    {
      "name": "Plane.009_home wall_0",
      "primitives": [
        {
          "attributes": {
            "NORMAL": 104,
            "POSITION": 103,
            "TEXCOORD_0": 105
          },
          "indices": 106,
          "material": 0,
          "mode": 4
        }
      ]
    },
    {
      "name": "Plane.009_inside window_0",
      "primitives": [
        {
          "attributes": {
            "NORMAL": 108,
            "POSITION": 107,
            "TEXCOORD_0": 109
          },
          "indices": 110,
          "material": 7,
          "mode": 4
        }
      ]
    },
    {
      "name": "Plane.010_inner window border_0",
      "primitives": [
        {
          "attributes": {
            "NORMAL": 112,
            "POSITION": 111,
            "TEXCOORD_0": 113
          },
          "indices": 114,
          "material": 17,
          "mode": 4
        }
      ]
    },
    {
      "name": "Plane.018_inside window_0",
      "primitives": [
        {
          "attributes": {
            "NORMAL": 116,
            "POSITION": 115,
            "TEXCOORD_0": 117
          },
          "indices": 118,
          "material": 7,
          "mode": 4
        }
      ]
    }
  ],
  "nodes": [
    {
      "children": [
        1
      ],
      "matrix": [
        1.0,
        0.0,
        0.0,
        0.0,
        0.0,
        2.220446049250313e-16,
        -1.0,
        0.0,
        0.0,
        1.0,
        2.220446049250313e-16,
        0.0,
        0.0,
        0.0,
        0.0,
        1.0
      ],
      "name": "Sketchfab_model"
    },
    {
      "children": [
        2
      ],
      "matrix": [
        1.0,
        0.0,
        0.0,
        0.0,
        0.0,
        0.0,
        1.0,
        0.0,
        0.0,
        -1.0,
        0.0,
        0.0,
        0.0,
        0.0,
        0.0,
        1.0
      ],
      "name": "43613533b3b74073a47e008a60295da9.fbx"
    },
    {
      "children": [
        3,
        8,
        10,
        12,
        14,
        16,
        20,
        22,
        24,
        26,
        28,
        30,
        32,
        34,
        36,
        38,
        40,
        42,
        44,
        46,
        48,
        51,
        54,
        56
      ],
      "name": "RootNode"
    },
    {
      "children": [
        4,
        5,
        6,
        7
      ],
      "matrix": [
        777.3893432617188,
        0.0,
        0.0,
        0.0,
        -0.0,
        -0.0001399005263525561,
        -858.7033081054574,
        0.0,
        0.0,
        634.3716430663978,
        -0.00010335225907529129,
        0.0,
        -6550.92529296875,
        -77.24634552001953,
        89.00334930419922,
        1.0
      ],
      "name": "Plane"
    },
    {
      "mesh": 0,
      "name": "Plane_home wall_0"
    },
    {
      "mesh": 1,
      "name": "Plane_Material.007_0"
    },
    {
      "mesh": 2,
      "name": "Plane_door border_0"
    },
    {
      "mesh": 3,
      "name": "Plane_Material.002_0"
    },
    {
      "children": [
        9
      ],
      "matrix": [
        777.3893432617188,
        0.0,
        0.0,
        0.0,
        -0.0,
        -0.0001675826928171629,
        -1028.6152343749864,
        0.0,
        0.0,
        634.3716430663978,
        -0.00010335225907529129,
        0.0,
        -6550.92529296875,
        -77.24634552001953,
        89.00334930419922,
        1.0
      ],
      "name": "Plane.001"
    },
    {
      "mesh": 4,
      "name": "Plane.001_roof_0"
    },
    {
      "children": [
        11
      ],
      "matrix": [
        777.3893432617188,
        0.0,
        0.0,
        0.0,
        -0.0,
        -0.0001399005263525561,
        -858.7033081054574,
        0.0,
        0.0,
        634.3716430663978,
        -0.00010335225907529129,
        0.0,
        -6550.92529296875,
        -77.24634552001953,
        89.00334930419922,
        1.0
      ],
      "name": "Plane.002"
    },
    {
      "mesh": 5,
      "name": "Plane.002_doore inside_0"
    },
    {
      "children": [
        13
      ],
      "matrix": [
        0.24847019368537868,
        23.768680798404905,
        -1.20999940991516e-07,
        0.0,
        -0.05724361369645298,
        0.0005985311563749463,
        24.49770914391181,
        0.0,
        11.116602206686604,
        -0.11620940697982086,
        0.025978920459411525,
        0.0,
        -7065.52490234375,
        291.2521057128906,
        896.7412719726563,
        1.0
      ],
      "name": "Sphere"
    },
    {
      "mesh": 6,
      "name": "Sphere_door handle_0"
    },
    {
      "children": [
        15
      ],
      "matrix": [
        777.3893432617188,
        0.0,
        0.0,
        0.0,
        -0.0,
        -0.0001399005263525561,
        -858.7033081054574,
        0.0,
        0.0,
        634.3716430663978,
        -0.00010335225907529129,
        0.0,
        -6550.92529296875,
        -77.24634552001953,
        89.00334930419922,
        1.0
      ],
      "name": "Plane.003"
    },
    {
      "mesh": 7,
      "name": "Plane.003_inside window_0"
    },
    {
      "children": [
        17,
        18,
        19
      ],
      "matrix": [
        634.3716430664063,
        0.0,
        0.0,
        0.0,
        -0.0,
        -0.0001399005263525561,
        -858.7033081054574,
        0.0,
        0.0,
        634.3716430663978,
        -0.00010335225907529129,
        0.0,
        -6502.302734375,
        -77.24634552001953,
        78.18885803222656,
        1.0
      ],
      "name": "Plane.005"
    },
    {
      "mesh": 8,
      "name": "Plane.005_chimni_0"
    },
    {
      "mesh": 9,
      "name": "Plane.005_Material.010_0"
    },
    {
      "mesh": 10,
      "name": "Plane.005_chimni border_0"
    },
    {
      "children": [
        21
      ],
      "matrix": [
        72.18072450044373,
        37.91736937687254,
        -2.2195572547524008e-08,
        0.0,
        -5.124142676256653e-06,
        9.669634432714655e-06,
        -144.94918823242148,
        0.0,
        -73.75364376180039,
        140.39980960602915,
        1.1973430466902645e-05,
        0.0,
        -7124.52392578125,
        971.316162109375,
        -395.0185546875,
        1.0
      ],
      "name": "Plane.008"
    },
    {
      "mesh": 11,
      "name": "Plane.008_roof tiles_0"
    },
    {
      "children": [
        23
      ],
      "matrix": [
        52.50498580932617,
        0.0,
        0.0,
        0.0,
        -0.0,
        -8.264088442753332e-06,
        -50.7246131896966,
        0.0,
        0.0,
        158.59291076659946,
        -2.583806476882282e-05,
        0.0,
        -6577.9892578125,
        -90.24835968017578,
        -994.4624633789063,
        1.0
      ],
      "name": "Plane.011"
    },
    {
      "mesh": 12,
      "name": "Plane.011_last brick_0"
    },
    {
      "children": [
        25
      ],
      "matrix": [
        81.53395080566406,
        0.0,
        0.0,
        0.0,
        -0.0,
        -8.264088442753332e-06,
        -50.7246131896966,
        0.0,
        0.0,
        158.59291076659946,
        -2.583806476882282e-05,
        0.0,
        -6436.3251953125,
        -90.24835968017578,
        -994.4624633789063,
        1.0
      ],
      "name": "Plane.012"
    },
    {
      "mesh": 13,
      "name": "Plane.012_last brick_0"
    },
    {
      "children": [
        27
      ],
      "matrix": [
        81.53395080566406,
        0.0,
        0.0,
        0.0,
        -0.0,
        -8.264088442753332e-06,
        -50.7246131896966,
        0.0,
        0.0,
        158.59291076659946,
        -2.583806476882282e-05,
        0.0,
        -6559.52734375,
        -18.009531021118164,
        -994.4624633789063,
        1.0
      ],
      "name": "Plane.013"
    },
    {
      "mesh": 14,
      "name": "Plane.013_chimni bricks_0"
    },
    {
      "children": [
        29
      ],
      "matrix": [
        81.53395080566406,
        0.0,
        0.0,
        0.0,
        -0.0,
        -8.264088442753332e-06,
        -50.7246131896966,
        0.0,
        0.0,
        158.59291076659946,
        -2.583806476882282e-05,
        0.0,
        -6557.58984375,
        357.4627380371094,
        -1005.6883544921875,
        1.0
      ],
      "name": "Plane.014"
    },
    {
      "mesh": 15,
      "name": "Plane.014_chimni bricks_0"
    },
    {
      "children": [
        31
      ],
      "matrix": [
        81.53395080566406,
        0.0,
        0.0,
        0.0,
        -0.0,
        -8.264088442753332e-06,
        -50.7246131896966,
        0.0,
        0.0,
        158.59291076659946,
        -2.583806476882282e-05,
        0.0,
        -6560.87646484375,
        253.6385955810547,
        -1005.6883544921875,
        1.0
      ],
      "name": "Plane.015"
    },
    {
      "mesh": 16,
      "name": "Plane.015_chimni bricks_0"
    },
    {
      "children": [
        33
      ],
      "matrix": [
        57.0465087890625,
        0.0,
        0.0,
        0.0,
        -0.0,
        -8.264088442753332e-06,
        -50.7246131896966,
        0.0,
        0.0,
        158.59291076659946,
        -2.583806476882282e-05,
        0.0,
        -6399.7041015625,
        836.683837890625,
        -994.8739013671875,
        1.0
      ],
      "name": "Plane.016"
    },
    {
      "mesh": 17,
      "name": "Plane.016_chimni bricks_0"
    },
    {
      "children": [
        35
      ],
      "matrix": [
        81.53395080566406,
        0.0,
        0.0,
        0.0,
        -0.0,
        -8.264088442753332e-06,
        -50.7246131896966,
        0.0,
        0.0,
        158.59291076659946,
        -2.583806476882282e-05,
        0.0,
        -6476.763671875,
        723.0109252929688,
        -1005.6883544921875,
        1.0
      ],
      "name": "Plane.017"
    },
    {
      "mesh": 18,
      "name": "Plane.017_chimni bricks_0"
    },
    {
      "children": [
        37
      ],
      "matrix": [
        81.53395080566406,
        0.0,
        0.0,
        0.0,
        -0.0,
        -8.264088442753332e-06,
        -50.7246131896966,
        0.0,
        0.0,
        158.59291076659946,
        -2.583806476882282e-05,
        0.0,
        -6322.984375,
        1078.4561767578125,
        -994.8739013671875,
        1.0
      ],
      "name": "Plane.020"
    },
    {
      "mesh": 19,
      "name": "Plane.020_chimni bricks_0"
    },
    {
      "children": [
        39
      ],
      "matrix": [
        99.43860400723109,
        -2.4211867660328674,
        21.114991505890213,
        0.0,
        20.443987621037515,
        -28.742781979791417,
        -99.57442948243705,
        0.0,
        13.363483918478298,
        162.84091819117182,
        -44.261344323664524,
        0.0,
        -6516.55859375,
        1261.5140380859375,
        -251.68820190429688,
        1.0
      ],
      "name": "Vert"
    },
    {
      "mesh": 20,
      "name": "Vert_antina_0"
    },
    {
      "children": [
        41
      ],
      "matrix": [
        178.20166255868648,
        -105.12394071741755,
        -217.87360837586806,
        0.0,
        66.55567574587234,
        281.46890017414916,
        -81.37189280166318,
        0.0,
        232.57317811135192,
        -0.00039489486907031345,
        190.2248226751989,
        0.0,
        -13882.0498046875,
        4426.8388671875,
        9261.685546875,
        1.0
      ],
      "name": "Camera"
    },
    {
      "name": "Object_41"
    },
    {
      "children": [
        43
      ],
      "matrix": [
        81.53395080566406,
        0.0,
        0.0,
        0.0,
        -0.0,
        -8.264088442753332e-06,
        -50.7246131896966,
        0.0,
        0.0,
        158.59291076659946,
        -2.583806476882282e-05,
        0.0,
        -6323.04638671875,
        273.8043212890625,
        -1000.266357421875,
        1.0
      ],
      "name": "Plane.059"
    },
    {
      "mesh": 21,
      "name": "Plane.059_chimni bricks_0"
    },
    {
      "children": [
        45
      ],
      "matrix": [
        13266.18359375,
        0.0,
        0.0,
        0.0,
        -0.0,
        -0.00291144058960427,
        -17870.294921874764,
        0.0,
        0.0,
        13266.183593749825,
        -0.0021613356440305176,
        0.0,
        -7945.005859375,
        1090.2838134765625,
        -140.65017700195313,
        1.0
      ],
      "name": "Cube.001"
    },
    {
      "mesh": 22,
      "name": "Cube.001_Material.001_0"
    },
    {
      "children": [
        47
      ],
      "matrix": [
        2349.7890625,
        0.0,
        0.0,
        0.0,
        -0.0,
        -0.0003828292304899946,
        -2349.789062499969,
        0.0,
        0.0,
        2349.789062499969,
        -0.0003828292304899946,
        0.0,
        -6451.69580078125,
        502.8162536621094,
        466.6430969238281,
        1.0
      ],
      "name": "Plane.006"
    },
    {
      "mesh": 23,
      "name": "Plane.006_base_0"
    },
    {
      "children": [
        49,
        50
      ],
      "matrix": [
        777.3893432617188,
        0.0,
        0.0,
        0.0,
        -0.0,
        -0.0001399005263525561,
        -858.7033081054574,
        0.0,
        0.0,
        634.3716430663978,
        -0.00010335225907529129,
        0.0,
        -6550.92529296875,
        -77.24634552001953,
        89.00334930419922,
        1.0
      ],
      "name": "Plane.007"
    },
    {
      "mesh": 24,
      "name": "Plane.007_door border_0"
    },
    {
      "mesh": 25,
      "name": "Plane.007_Material.007_0"
    },
    {
      "children": [
        52,
        53
      ],
      "matrix": [
        777.3893432617188,
        0.0,
        0.0,
        0.0,
        -0.0,
        -0.0001399005263525561,
        -858.7033081054574,
        0.0,
        0.0,
        634.3716430663978,
        -0.00010335225907529129,
        0.0,
        -6550.92529296875,
        -77.24634552001953,
        89.00334930419922,
        1.0
      ],
      "name": "Plane.009"
    },
    {
      "mesh": 26,
      "name": "Plane.009_home wall_0"
    },
    {
      "mesh": 27,
      "name": "Plane.009_inside window_0"
    },
    {
      "children": [
        55
      ],
      "matrix": [
        777.3893432617188,
        0.0,
        0.0,
        0.0,
        -0.0,
        -0.0001399005263525561,
        -858.7033081054574,
        0.0,
        0.0,
        634.3716430663978,
        -0.00010335225907529129,
        0.0,
        -6550.92529296875,
        -77.24634552001953,
        89.00334930419922,
        1.0
      ],
      "name": "Plane.010"
    },
    {
      "mesh": 28,
      "name": "Plane.010_inner window border_0"
    },
    {
      "children": [
        57
      ],
      "matrix": [
        777.3893432617188,
        0.0,
        0.0,
        0.0,
        -0.0,
        -0.0001399005263525561,
        -858.7033081054574,
        0.0,
        0.0,
        634.3716430663978,
        -0.00010335225907529129,
        0.0,
        -6550.92529296875,
        -77.24634552001953,
        89.00334930419922,
        1.0
      ],
      "name": "Plane.018"
    },
    {
      "mesh": 29,
      "name": "Plane.018_inside window_0"
    }
  ],
  "scene": 0,
  "scenes": [
    {
      "name": "Sketchfab_Scene",
      "nodes": [
        0
      ]
    }
  ]
}
