{
  "accessors": [
    {
      "bufferView": 2,
      "componentType": 5126,
      "count": 137,
      "max": [
        1.223259449005127,
        2.071906566619873,
        1.8444442749023438
      ],
      "min": [
        -1.2443633079528809,
        -0.9999999403953552,
        -0.42785900831222534
      ],
      "type": "VEC3"
    },
    {
      "bufferView": 2,
      "byteOffset": 1644,
      "componentType": 5126,
      "count": 137,
      "max": [
        0.9822424054145813,
        0.8970031142234802,
        0.9988422393798828
      ],
      "min": [
        -1.0,
        -1.0,
        -1.0
      ],
      "type": "VEC3"
    },
    {
      "bufferView": 1,
      "componentType": 5126,
      "count": 137,
      "max": [
        1.0,
        1.0
      ],
      "min": [
        0.0,
        0.0
      ],
      "type": "VEC2"
    },
    {
      "bufferView": 0,
      "componentType": 5125,
      "count": 444,
      "type": "SCALAR"
    },
    {
      "bufferView": 2,
      "byteOffset": 3288,
      "componentType": 5126,
      "count": 62,
      "max": [
        1.0,
        1.0,
        2.7862513065338135
      ],
      "min": [
        -1.0,
        -1.3944728374481201,
        -2.575517177581787
      ],
      "type": "VEC3"
    },
    {
      "bufferView": 2,
      "byteOffset": 4032,
      "componentType": 5126,
      "count": 62,
      "max": [
        0.9447108507156372,
        0.8689669966697693,
        0.8769869804382324
      ],
      "min": [
        -0.9447107911109924,
        -0.8958701491355896,
        -0.9983035922050476
      ],
      "type": "VEC3"
    },
    {
      "bufferView": 1,
      "byteOffset": 1096,
      "componentType": 5126,
      "count": 62,
      "max": [
        0.875,
        1.0
      ],
      "min": [
        0.0,
        0.0
      ],
      "type": "VEC2"
    },
    {
      "bufferView": 0,
      "byteOffset": 1776,
      "componentType": 5125,
      "count": 177,
      "type": "SCALAR"
    },
    {
      "bufferView": 2,
      "byteOffset": 4776,
      "componentType": 5126,
      "count": 51,
      "max": [
        5.658060073852539,
        3.01550030708313,
        1.0
      ],
      "min": [
        -0.9999998807907104,
        -0.9999998807907104,
        -1.0
      ],
      "type": "VEC3"
    },
    {
      "bufferView": 2,
      "byteOffset": 5388,
      "componentType": 5126,
      "count": 51,
      "max": [
        0.9727204442024231,
        0.8218362331390381,
        0.9982327818870544
      ],
      "min": [
        -0.9238795042037964,
        -1.0,
        -0.9982326626777649
      ],
      "type": "VEC3"
    },
    {
      "bufferView": 1,
      "byteOffset": 1592,
      "componentType": 5126,
      "count": 51,
      "max": [
        0.5,
        1.0
      ],
      "min": [
        0.0,
        0.0
      ],
      "type": "VEC2"
    },
    {
      "bufferView": 0,
      "byteOffset": 2484,
      "componentType": 5125,
      "count": 174,
      "type": "SCALAR"
    }
  ],
  "asset": {
    "extras": {
      "author": "wErT (https://sketchfab.com/wErTT)",
      "license": "CC-BY-4.0 (http://creativecommons.org/licenses/by/4.0/)",
      "source": "https://sketchfab.com/3d-models/free-low-poly-rubber-duck-basic-materials-6e52dbadef36426fb7fd8adaa00d2b66",
      "title": "FREE Low Poly Rubber Duck | Basic Materials"
    },
    "generator": "Sketchfab-0.13.0",
    "version": "2.0"
  },
  "bufferViews": [
    {
      "buffer": 0,
      "byteLength": 3180,
      "name": "floatBufferViews",
      "target": 34963
    },
    {
      "buffer": 0,
      "byteLength": 2000,
      "byteOffset": 3180,
      "byteStride": 8,
      "name": "floatBufferViews",
      "target": 34962
    },
    {
      "buffer": 0,
      "byteLength": 6000,
      "byteOffset": 5180,
      "byteStride": 12,
      "name": "floatBufferViews",
      "target": 34962
    }
  ],
  "buffers": [
    {
      "byteLength": 11180,
      "uri": "scene.bin"
    }
  ],
  "materials": [
    {
      "doubleSided": true,
      "name": "Yellow",
      "pbrMetallicRoughness": {
        "baseColorFactor": [
          1.0,
          0.874491,
          0.0,
          1.0
        ],
        "metallicFactor": 0.0
      }
    },
    {
      "doubleSided": true,
      "name": "Orange",
      "pbrMetallicRoughness": {
        "baseColorFactor": [
          0.800797,
          0.1561,
          0.0,
          1.0
        ],
        "metallicFactor": 0.0,
        "roughnessFactor": 0.9369669962996403
      }
    },
    {
      "doubleSided": true,
      "name": "Black",
      "pbrMetallicRoughness": {
        "baseColorFactor": [
          0.0,
          0.0,
          0.0,
          1.0
        ],
        "metallicFactor": 0.0
      }
    }
  ],
  "meshes": [
    {
      "name": "Icosphere_Yellow_0",
      "primitives": [
        {
          "attributes": {
            "NORMAL": 1,
            "POSITION": 0,
            "TEXCOORD_0": 2
          },
          "indices": 3,
          "material": 0,
          "mode": 4
        }
      ]
    },
    {
      "name": "Cube_Orange_0",
      "primitives": [
        {
          "attributes": {
            "NORMAL": 5,
            "POSITION": 4,
            "TEXCOORD_0": 6
          },
          "indices": 7,
          "material": 1,
          "mode": 4
        }
      ]
    },
    {
      "name": "Sphere_Black_0",
      "primitives": [
        {
          "attributes": {
            "NORMAL": 9,
            "POSITION": 8,
            "TEXCOORD_0": 10
          },
          "indices": 11,
          "material": 2,
          "mode": 4
        }
      ]
    }
  ],
  "nodes": [
    {
      "children": [
        1
      ],
      "matrix": [
        1.0,
        0.0,
        0.0,
        0.0,
        0.0,
        2.220446049250313e-16,
        -1.0,
        0.0,
        0.0,
        1.0,
        2.220446049250313e-16,
        0.0,
        0.0,
        0.0,
        0.0,
        1.0
      ],
      "name": "Sketchfab_model"
    },
    {
      "children": [
        2
      ],
      "matrix": [
        0.009999999776482582,
        0.0,
        0.0,
        0.0,
        0.0,
        0.0,
        0.009999999776482582,
        0.0,
        0.0,
        -0.009999999776482582,
        0.0,
        0.0,
        0.0,
        0.0,
        0.0,
        1.0
      ],
      "name": "DUCK.fbx"
    },
    {
      "children": [
        3,
        5,
        7
      ],
      "name": "RootNode"
    },
    {
      "children": [
        4
      ],
      "matrix": [
        90.0,
        0.0,
        0.0,
        0.0,
        0.0,
        -1.4662861145264827e-05,
        -89.9999999999988,
        0.0,
        0.0,
        89.9999999999988,
        -1.4662861145264827e-05,
        0.0,
        0.0,
        0.0,
        0.0,
        1.0
      ],
      "name": "Icosphere"
    },
    {
      "mesh": 0,
      "name": "Icosphere_Yellow_0"
    },
    {
      "children": [
        6
      ],
      "matrix": [
        22.461898803710938,
        0.0,
        0.0,
        0.0,
        0.0,
        -1.4448932354376774e-06,
        -8.868691444396855,
        0.0,
        0.0,
        3.2078783512115057,
        -5.226297203857334e-07,
        0.0,
        2.776059627532959,
        104.05138397216797,
        70.70915222167969,
        1.0
      ],
      "name": "Cube"
    },
    {
      "mesh": 1,
      "name": "Cube_Orange_0"
    },
    {
      "children": [
        8
      ],
      "matrix": [
        9.400535190750814,
        -1.4593606109294344e-07,
        3.4102751024560827,
        0.0,
        3.410275102456072,
        -4.900558738706784e-07,
        -9.400535190750805,
        0.0,
        3.04310184307079e-07,
        10.000001907348619,
        -4.1091045965154334e-07,
        0.0,
        -22.735370635986328,
        122.53956604003906,
        54.12203598022461,
        1.0
      ],
      "name": "Sphere"
    },
    {
      "mesh": 2,
      "name": "Sphere_Black_0"
    }
  ],
  "scene": 0,
  "scenes": [
    {
      "name": "Sketchfab_Scene",
      "nodes": [
        0
      ]
    }
  ]
}
