{
  "accessors": [
    {
      "bufferView": 2,
      "componentType": 5126,
      "count": 821,
      "max": [
        -11.569613456726074,
        6.48659610748291,
        30.48397445678711
      ],
      "min": [
        -19.941848754882813,
        -5.199549198150635,
        24.22103500366211
      ],
      "type": "VEC3"
    },
    {
      "bufferView": 2,
      "byteOffset": 9852,
      "componentType": 5126,
      "count": 821,
      "max": [
        0.9986421465873718,
        0.999057412147522,
        0.999155580997467
      ],
      "min": [
        -0.9932557940483093,
        -0.9958211779594421,
        -0.9995340704917908
      ],
      "type": "VEC3"
    },
    {
      "bufferView": 1,
      "componentType": 5126,
      "count": 821,
      "max": [
        0.4386880099773407,
        0.9880809783935547
      ],
      "min": [
        0.02673099935054779,
        0.41384801268577576
      ],
      "type": "VEC2"
    },
    {
      "bufferView": 0,
      "componentType": 5125,
      "count": 4512,
      "type": "SCALAR"
    },
    {
      "bufferView": 2,
      "byteOffset": 19704,
      "componentType": 5126,
      "count": 1550,
      "max": [
        25.53270149230957,
        2.04107403755188,
        2.7391250133514404
      ],
      "min": [
        14.865426063537598,
        -14.581114768981934,
        -2.7188780307769775
      ],
      "type": "VEC3"
    },
    {
      "bufferView": 2,
      "byteOffset": 38304,
      "componentType": 5126,
      "count": 1550,
      "max": [
        0.9987671375274658,
        0.9984387755393982,
        0.9989834427833557
      ],
      "min": [
        -0.9988423585891724,
        -0.998761773109436,
        -0.9907825589179993
      ],
      "type": "VEC3"
    },
    {
      "bufferView": 1,
      "byteOffset": 6568,
      "componentType": 5126,
      "count": 1550,
      "max": [
        0.2651199996471405,
        0.9675499796867371
      ],
      "min": [
        0.005578999873250723,
        0.6822069883346558
      ],
      "type": "VEC2"
    },
    {
      "bufferView": 0,
      "byteOffset": 18048,
      "componentType": 5125,
      "count": 5970,
      "type": "SCALAR"
    },
    {
      "bufferView": 2,
      "byteOffset": 56904,
      "componentType": 5126,
      "count": 1550,
      "max": [
        -12.826210975646973,
        7.798029899597168,
        1.5120710134506226
      ],
      "min": [
        -19.834636688232422,
        -4.491407871246338,
        -2.6629250049591064
      ],
      "type": "VEC3"
    },
    {
      "bufferView": 2,
      "byteOffset": 75504,
      "componentType": 5126,
      "count": 1550,
      "max": [
        0.9997212290763855,
        0.9977008104324341,
        0.9995926022529602
      ],
      "min": [
        -0.9955987930297852,
        -0.9990637302398682,
        -0.9986807107925415
      ],
      "type": "VEC3"
    },
    {
      "bufferView": 1,
      "byteOffset": 18968,
      "componentType": 5126,
      "count": 1550,
      "max": [
        0.2651199996471405,
        0.9675499796867371
      ],
      "min": [
        0.005578999873250723,
        0.6822069883346558
      ],
      "type": "VEC2"
    },
    {
      "bufferView": 0,
      "byteOffset": 41928,
      "componentType": 5125,
      "count": 5970,
      "type": "SCALAR"
    },
    {
      "bufferView": 2,
      "byteOffset": 94104,
      "componentType": 5126,
      "count": 228,
      "max": [
        41.124847412109375,
        -3.012794017791748,
        25.04543685913086
      ],
      "min": [
        36.099605560302734,
        -5.684967041015625,
        22.73992156982422
      ],
      "type": "VEC3"
    },
    {
      "bufferView": 2,
      "byteOffset": 96840,
      "componentType": 5126,
      "count": 228,
      "max": [
        0.9806720614433289,
        0.9942523837089539,
        0.9863796830177307
      ],
      "min": [
        -0.9806720614433289,
        -0.9942523837089539,
        -0.9863796830177307
      ],
      "type": "VEC3"
    },
    {
      "bufferView": 1,
      "byteOffset": 31368,
      "componentType": 5126,
      "count": 228,
      "max": [
        0.966392993927002,
        0.7637069821357727
      ],
      "min": [
        0.8890990018844604,
        0.6090880036354065
      ],
      "type": "VEC2"
    },
    {
      "bufferView": 0,
      "byteOffset": 65808,
      "componentType": 5125,
      "count": 1152,
      "type": "SCALAR"
    },
    {
      "bufferView": 2,
      "byteOffset": 99576,
      "componentType": 5126,
      "count": 3756,
      "max": [
        4.4891839027404785,
        -8.554773330688477,
        29.11722755432129
      ],
      "min": [
        -1.4287559986114502,
        -15.431333541870117,
        25.50878143310547
      ],
      "type": "VEC3"
    },
    {
      "bufferView": 2,
      "byteOffset": 144648,
      "componentType": 5126,
      "count": 3756,
      "max": [
        0.9997283816337585,
        0.9997209906578064,
        0.9998511075973511
      ],
      "min": [
        -0.9997853636741638,
        -0.9997108578681946,
        -0.9999022483825684
      ],
      "type": "VEC3"
    },
    {
      "bufferView": 1,
      "byteOffset": 33192,
      "componentType": 5126,
      "count": 3756,
      "max": [
        0.9908379912376404,
        0.9974279999732971
      ],
      "min": [
        0.002558999927714467,
        0.002555999904870987
      ],
      "type": "VEC2"
    },
    {
      "bufferView": 0,
      "byteOffset": 70416,
      "componentType": 5125,
      "count": 21261,
      "type": "SCALAR"
    },
    {
      "bufferView": 2,
      "byteOffset": 189720,
      "componentType": 5126,
      "count": 821,
      "max": [
        25.589195251464844,
        -5.422022819519043,
        28.37126922607422
      ],
      "min": [
        17.5855655670166,
        -15.932185173034668,
        20.20598030090332
      ],
      "type": "VEC3"
    },
    {
      "bufferView": 2,
      "byteOffset": 199572,
      "componentType": 5126,
      "count": 821,
      "max": [
        0.9986772537231445,
        0.9989457130432129,
        0.9997588992118835
      ],
      "min": [
        -0.9940014481544495,
        -0.996782660484314,
        -0.9573413133621216
      ],
      "type": "VEC3"
    },
    {
      "bufferView": 1,
      "byteOffset": 63240,
      "componentType": 5126,
      "count": 821,
      "max": [
        0.4386880099773407,
        0.9880809783935547
      ],
      "min": [
        0.02673099935054779,
        0.41384801268577576
      ],
      "type": "VEC2"
    },
    {
      "bufferView": 0,
      "byteOffset": 155460,
      "componentType": 5125,
      "count": 4512,
      "type": "SCALAR"
    },
    {
      "bufferView": 2,
      "byteOffset": 209424,
      "componentType": 5126,
      "count": 5,
      "max": [
        40.47311782836914,
        -5.6111040115356445,
        25.659320831298828
      ],
      "min": [
        40.45115661621094,
        -5.714807987213135,
        25.45254135131836
      ],
      "type": "VEC3"
    },
    {
      "bufferView": 1,
      "byteOffset": 69808,
      "componentType": 5126,
      "count": 5,
      "max": [
        0.0,
        0.0
      ],
      "min": [
        0.0,
        0.0
      ],
      "type": "VEC2"
    },
    {
      "bufferView": 0,
      "byteOffset": 173508,
      "componentType": 5125,
      "count": 10,
      "type": "SCALAR"
    },
    {
      "bufferView": 2,
      "byteOffset": 209484,
      "componentType": 5126,
      "count": 7536,
      "max": [
        40.49220657348633,
        1.6546339988708496,
        22.469453811645508
      ],
      "min": [
        -17.37933921813965,
        -14.91269302368164,
        19.878093719482422
      ],
      "type": "VEC3"
    },
    {
      "bufferView": 2,
      "byteOffset": 299916,
      "componentType": 5126,
      "count": 7536,
      "max": [
        0.9999591112136841,
        0.9999390840530396,
        0.9999707937240601
      ],
      "min": [
        -0.9999107122421265,
        -0.9998867511749268,
        -0.9998466372489929
      ],
      "type": "VEC3"
    },
    {
      "bufferView": 1,
      "byteOffset": 69848,
      "componentType": 5126,
      "count": 7536,
      "max": [
        0.7666339874267578,
        0.5518209934234619
      ],
      "min": [
        0.0,
        0.0
      ],
      "type": "VEC2"
    },
    {
      "bufferView": 0,
      "byteOffset": 173548,
      "componentType": 5125,
      "count": 40788,
      "type": "SCALAR"
    },
    {
      "bufferView": 2,
      "byteOffset": 390348,
      "componentType": 5126,
      "count": 3627,
      "max": [
        40.330631256103516,
        2.1948580741882324,
        31.32939910888672
      ],
      "min": [
        -17.033748626708984,
        -15.511555671691895,
        18.68122673034668
      ],
      "type": "VEC3"
    },
    {
      "bufferView": 2,
      "byteOffset": 433872,
      "componentType": 5126,
      "count": 3627,
      "max": [
        0.9994065761566162,
        0.9997410178184509,
        0.9999634027481079
      ],
      "min": [
        -0.9998892545700073,
        -0.9995004534721375,
        -0.9998236298561096
      ],
      "type": "VEC3"
    },
    {
      "bufferView": 1,
      "byteOffset": 130136,
      "componentType": 5126,
      "count": 3627,
      "max": [
        0.7666339874267578,
        0.5518209934234619
      ],
      "min": [
        0.0,
        0.0
      ],
      "type": "VEC2"
    },
    {
      "bufferView": 0,
      "byteOffset": 336700,
      "componentType": 5125,
      "count": 19284,
      "type": "SCALAR"
    },
    {
      "bufferView": 2,
      "byteOffset": 477396,
      "componentType": 5126,
      "count": 6861,
      "max": [
        -11.768819808959961,
        8.320476531982422,
        29.454444885253906
      ],
      "min": [
        -22.0372314453125,
        -3.7255890369415283,
        -2.418471097946167
      ],
      "type": "VEC3"
    },
    {
      "bufferView": 2,
      "byteOffset": 559728,
      "componentType": 5126,
      "count": 6861,
      "max": [
        0.9999339580535889,
        0.9990774989128113,
        0.9999973773956299
      ],
      "min": [
        -0.9998617172241211,
        -0.9997838139533997,
        -0.9999762773513794
      ],
      "type": "VEC3"
    },
    {
      "bufferView": 1,
      "byteOffset": 159152,
      "componentType": 5126,
      "count": 6861,
      "max": [
        0.9965639710426331,
        0.9825950264930725
      ],
      "min": [
        0.003306000027805567,
        0.002686999971047044
      ],
      "type": "VEC2"
    },
    {
      "bufferView": 0,
      "byteOffset": 413836,
      "componentType": 5125,
      "count": 33780,
      "type": "SCALAR"
    },
    {
      "bufferView": 2,
      "byteOffset": 642060,
      "componentType": 5126,
      "count": 8429,
      "max": [
        26.02543830871582,
        0.9920409917831421,
        27.114253997802734
      ],
      "min": [
        14.859414100646973,
        -17.167909622192383,
        -2.5444929599761963
      ],
      "type": "VEC3"
    },
    {
      "bufferView": 2,
      "byteOffset": 743208,
      "componentType": 5126,
      "count": 8429,
      "max": [
        0.9997275471687317,
        0.9997214674949646,
        0.9996584057807922
      ],
      "min": [
        -0.999966025352478,
        -0.9993410110473633,
        -0.9999217987060547
      ],
      "type": "VEC3"
    },
    {
      "bufferView": 1,
      "byteOffset": 214040,
      "componentType": 5126,
      "count": 8429,
      "max": [
        0.9965639710426331,
        0.9825950264930725
      ],
      "min": [
        0.002650999929755926,
        0.002686999971047044
      ],
      "type": "VEC2"
    },
    {
      "bufferView": 0,
      "byteOffset": 548956,
      "componentType": 5125,
      "count": 42630,
      "type": "SCALAR"
    },
    {
      "bufferView": 2,
      "byteOffset": 844356,
      "componentType": 5126,
      "count": 1506,
      "max": [
        46.287147521972656,
        3.4832959175109863,
        21.142385482788086
      ],
      "min": [
        34.12126541137695,
        -5.195724010467529,
        -0.4464290142059326
      ],
      "type": "VEC3"
    },
    {
      "bufferView": 2,
      "byteOffset": 862428,
      "componentType": 5126,
      "count": 1506,
      "max": [
        0.9999371767044067,
        0.9997581839561462,
        0.9726853966712952
      ],
      "min": [
        -0.9999183416366577,
        -0.9998108744621277,
        -0.998579740524292
      ],
      "type": "VEC3"
    },
    {
      "bufferView": 3,
      "componentType": 5126,
      "count": 1506,
      "max": [
        0.9999329447746277,
        0.9998241066932678,
        0.8088425993919373,
        1.0
      ],
      "min": [
        -0.9973560571670532,
        -0.9993385076522827,
        -0.998894214630127,
        -1.0
      ],
      "type": "VEC4"
    },
    {
      "bufferView": 1,
      "byteOffset": 281472,
      "componentType": 5126,
      "count": 1506,
      "max": [
        0.9899320006370544,
        0.9945210218429565
      ],
      "min": [
        0.003971999976783991,
        0.010714000090956688
      ],
      "type": "VEC2"
    },
    {
      "bufferView": 0,
      "byteOffset": 719476,
      "componentType": 5125,
      "count": 7512,
      "type": "SCALAR"
    },
    {
      "bufferView": 2,
      "byteOffset": 880500,
      "componentType": 5126,
      "count": 5694,
      "max": [
        6.988072872161865,
        -7.1197829246521,
        34.539791107177734
      ],
      "min": [
        -2.841641902923584,
        -16.35873794555664,
        -2.618557929992676
      ],
      "type": "VEC3"
    },
    {
      "bufferView": 2,
      "byteOffset": 948828,
      "componentType": 5126,
      "count": 5694,
      "max": [
        0.999788224697113,
        0.9995022416114807,
        0.998720645904541
      ],
      "min": [
        -0.9998121857643127,
        -0.9998748302459717,
        -0.9996117949485779
      ],
      "type": "VEC3"
    },
    {
      "bufferView": 1,
      "byteOffset": 293520,
      "componentType": 5126,
      "count": 5694,
      "max": [
        0.9784510135650635,
        0.9963120222091675
      ],
      "min": [
        0.0,
        0.0
      ],
      "type": "VEC2"
    },
    {
      "bufferView": 0,
      "byteOffset": 749524,
      "componentType": 5125,
      "count": 21894,
      "type": "SCALAR"
    },
    {
      "bufferView": 2,
      "byteOffset": 1017156,
      "componentType": 5126,
      "count": 1228,
      "max": [
        24.93154525756836,
        0.2254749983549118,
        18.862152099609375
      ],
      "min": [
        15.301997184753418,
        -13.828482627868652,
        0.3918449878692627
      ],
      "type": "VEC3"
    },
    {
      "bufferView": 2,
      "byteOffset": 1031892,
      "componentType": 5126,
      "count": 1228,
      "max": [
        0.9979915618896484,
        0.999594509601593,
        0.9976576566696167
      ],
      "min": [
        -0.9993190765380859,
        -0.9997279047966003,
        -0.9854810833930969
      ],
      "type": "VEC3"
    },
    {
      "bufferView": 1,
      "byteOffset": 339072,
      "componentType": 5126,
      "count": 1228,
      "max": [
        0.9863560199737549,
        0.9658129811286926
      ],
      "min": [
        0.0075980001129209995,
        0.015422999858856201
      ],
      "type": "VEC2"
    },
    {
      "bufferView": 0,
      "byteOffset": 837100,
      "componentType": 5125,
      "count": 5880,
      "type": "SCALAR"
    },
    {
      "bufferView": 2,
      "byteOffset": 1046628,
      "componentType": 5126,
      "count": 1228,
      "max": [
        -11.92257308959961,
        7.68668794631958,
        20.653221130371094
      ],
      "min": [
        -21.815948486328125,
        -0.506725013256073,
        -0.5708100199699402
      ],
      "type": "VEC3"
    },
    {
      "bufferView": 2,
      "byteOffset": 1061364,
      "componentType": 5126,
      "count": 1228,
      "max": [
        0.9983829259872437,
        0.9984233975410461,
        0.9264269471168518
      ],
      "min": [
        -0.9999728202819824,
        -0.9996703267097473,
        -0.9947921633720398
      ],
      "type": "VEC3"
    },
    {
      "bufferView": 1,
      "byteOffset": 348896,
      "componentType": 5126,
      "count": 1228,
      "max": [
        0.9863560199737549,
        0.9658129811286926
      ],
      "min": [
        0.0075980001129209995,
        0.015422999858856201
      ],
      "type": "VEC2"
    },
    {
      "bufferView": 0,
      "byteOffset": 860620,
      "componentType": 5125,
      "count": 5880,
      "type": "SCALAR"
    },
    {
      "bufferView": 2,
      "byteOffset": 1076100,
      "componentType": 5126,
      "count": 5569,
      "max": [
        6.771964073181152,
        -8.00208854675293,
        27.420822143554688
      ],
      "min": [
        -2.622144937515259,
        -15.582306861877441,
        -1.3832379579544067
      ],
      "type": "VEC3"
    },
    {
      "bufferView": 2,
      "byteOffset": 1142928,
      "componentType": 5126,
      "count": 5569,
      "max": [
        0.9999074935913086,
        0.9981184005737305,
        0.9992125034332275
      ],
      "min": [
        -0.9999047517776489,
        -0.9990310668945313,
        -0.9999501705169678
      ],
      "type": "VEC3"
    },
    {
      "bufferView": 1,
      "byteOffset": 358720,
      "componentType": 5126,
      "count": 5569,
      "max": [
        0.9965639710426331,
        0.9825950264930725
      ],
      "min": [
        0.002650999929755926,
        0.002686999971047044
      ],
      "type": "VEC2"
    },
    {
      "bufferView": 0,
      "byteOffset": 884140,
      "componentType": 5125,
      "count": 29466,
      "type": "SCALAR"
    },
    {
      "bufferView": 2,
      "byteOffset": 1209756,
      "componentType": 5126,
      "count": 5077,
      "max": [
        46.395965576171875,
        2.0968360900878906,
        29.466835021972656
      ],
      "min": [
        32.39630126953125,
        -6.259325981140137,
        7.053276062011719
      ],
      "type": "VEC3"
    },
    {
      "bufferView": 2,
      "byteOffset": 1270680,
      "componentType": 5126,
      "count": 5077,
      "max": [
        0.9999649524688721,
        0.9998763799667358,
        0.9998169541358948
      ],
      "min": [
        -0.9999632835388184,
        -0.9998610019683838,
        -0.9988226294517517
      ],
      "type": "VEC3"
    },
    {
      "bufferView": 1,
      "byteOffset": 403272,
      "componentType": 5126,
      "count": 5077,
      "max": [
        0.9965639710426331,
        0.9825950264930725
      ],
      "min": [
        0.002650999929755926,
        0.002686999971047044
      ],
      "type": "VEC2"
    },
    {
      "bufferView": 0,
      "byteOffset": 1002004,
      "componentType": 5125,
      "count": 27048,
      "type": "SCALAR"
    },
    {
      "bufferView": 2,
      "byteOffset": 1331604,
      "componentType": 5126,
      "count": 2316,
      "max": [
        45.26691436767578,
        2.680634021759033,
        30.240413665771484
      ],
      "min": [
        33.45060729980469,
        -6.733972072601318,
        -2.681483030319214
      ],
      "type": "VEC3"
    },
    {
      "bufferView": 2,
      "byteOffset": 1359396,
      "componentType": 5126,
      "count": 2316,
      "max": [
        0.9991629123687744,
        0.9999616146087646,
        0.9989171624183655
      ],
      "min": [
        -0.9991750717163086,
        -0.9998497366905212,
        -0.9994977116584778
      ],
      "type": "VEC3"
    },
    {
      "bufferView": 1,
      "byteOffset": 443888,
      "componentType": 5126,
      "count": 2316,
      "max": [
        0.9945939779281616,
        0.9963769912719727
      ],
      "min": [
        0.006893999874591827,
        0.010878999717533588
      ],
      "type": "VEC2"
    },
    {
      "bufferView": 0,
      "byteOffset": 1110196,
      "componentType": 5125,
      "count": 8610,
      "type": "SCALAR"
    }
  ],
  "asset": {
    "extras": {
      "author": "Pavlov DR (https://sketchfab.com/pavlovdr)",
      "license": "CC-BY-4.0 (http://creativecommons.org/licenses/by/4.0/)",
      "source": "https://sketchfab.com/3d-models/set-of-cartoon-characters-low-poly-2c65f1af604847429f1ca44157ca4bfa",
      "title": "Set of cartoon characters Low-poly"
    },
    "generator": "Sketchfab-16.31.0",
    "version": "2.0"
  },
  "bufferViews": [
    {
      "buffer": 0,
      "byteLength": 1144636,
      "name": "floatBufferViews",
      "target": 34963
    },
    {
      "buffer": 0,
      "byteLength": 462416,
      "byteOffset": 1144636,
      "byteStride": 8,
      "name": "floatBufferViews",
      "target": 34962
    },
    {
      "buffer": 0,
      "byteLength": 1387188,
      "byteOffset": 1607052,
      "byteStride": 12,
      "name": "floatBufferViews",
      "target": 34962
    },
    {
      "buffer": 0,
      "byteLength": 24096,
      "byteOffset": 2994240,
      "byteStride": 16,
      "name": "floatBufferViews",
      "target": 34962
    }
  ],
  "buffers": [
    {
      "byteLength": 3018336,
      "uri": "scene.bin"
    }
  ],
  "images": [
    {
      "uri": "textures/material_baseColor.png"
    },
    {
      "uri": "textures/.001_baseColor.png"
    },
    {
      "uri": "textures/.002_baseColor.png"
    },
    {
      "uri": "textures/.003_baseColor.png"
    },
    {
      "uri": "textures/.004_baseColor.png"
    },
    {
      "uri": "textures/.005_baseColor.png"
    },
    {
      "uri": "textures/.006_baseColor.png"
    },
    {
      "uri": "textures/.007_baseColor.png"
    },
    {
      "uri": "textures/material_10_baseColor.png"
    },
    {
      "uri": "textures/material_11_baseColor.png"
    },
    {
      "uri": "textures/material_11_normal.png"
    },
    {
      "uri": "textures/material_12_baseColor.png"
    },
    {
      "uri": "textures/material_13_baseColor.png"
    },
    {
      "uri": "textures/material_15_baseColor.png"
    }
  ],
  "materials": [
    {
      "doubleSided": true,
      "name": "None",
      "pbrMetallicRoughness": {
        "metallicFactor": 0.0,
        "roughnessFactor": 0.6
      }
    },
    {
      "doubleSided": true,
      "name": "material",
      "pbrMetallicRoughness": {
        "baseColorTexture": {
          "index": 0
        },
        "metallicFactor": 0.23883680207212302,
        "roughnessFactor": 0.6
      }
    },
    {
      "doubleSided": true,
      "name": ".001",
      "pbrMetallicRoughness": {
        "baseColorTexture": {
          "index": 1
        },
        "metallicFactor": 0.0,
        "roughnessFactor": 0.6
      }
    },
    {
      "doubleSided": true,
      "name": ".002",
      "pbrMetallicRoughness": {
        "baseColorTexture": {
          "index": 2
        },
        "metallicFactor": 0.0,
        "roughnessFactor": 0.6
      }
    },
    {
      "doubleSided": true,
      "name": ".003",
      "pbrMetallicRoughness": {
        "baseColorTexture": {
          "index": 3
        },
        "metallicFactor": 0.0,
        "roughnessFactor": 0.6
      }
    },
    {
      "doubleSided": true,
      "name": ".004",
      "pbrMetallicRoughness": {
        "baseColorTexture": {
          "index": 4
        },
        "metallicFactor": 0.0,
        "roughnessFactor": 0.6
      }
    },
    {
      "doubleSided": true,
      "name": ".005",
      "pbrMetallicRoughness": {
        "baseColorTexture": {
          "index": 5
        },
        "metallicFactor": 0.0,
        "roughnessFactor": 0.6
      }
    },
    {
      "doubleSided": true,
      "name": ".006",
      "pbrMetallicRoughness": {
        "baseColorTexture": {
          "index": 6
        },
        "metallicFactor": 0.0,
        "roughnessFactor": 0.6
      }
    },
    {
      "doubleSided": true,
      "name": ".007",
      "pbrMetallicRoughness": {
        "baseColorTexture": {
          "index": 7
        },
        "metallicFactor": 0.0,
        "roughnessFactor": 0.6
      }
    },
    {
      "doubleSided": true,
      "name": ".008",
      "pbrMetallicRoughness": {
        "baseColorTexture": {
          "index": 2
        },
        "metallicFactor": 0.0,
        "roughnessFactor": 0.6
      }
    },
    {
      "doubleSided": true,
      "name": "material_10",
      "pbrMetallicRoughness": {
        "baseColorTexture": {
          "index": 8
        },
        "metallicFactor": 0.0,
        "roughnessFactor": 0.6
      }
    },
    {
      "doubleSided": true,
      "name": "material_11",
      "normalTexture": {
        "index": 10
      },
      "pbrMetallicRoughness": {
        "baseColorTexture": {
          "index": 9
        },
        "metallicFactor": 0.0,
        "roughnessFactor": 0.6
      }
    },
    {
      "doubleSided": true,
      "name": "material_12",
      "pbrMetallicRoughness": {
        "baseColorTexture": {
          "index": 11
        },
        "metallicFactor": 0.0,
        "roughnessFactor": 0.6
      }
    },
    {
      "doubleSided": true,
      "name": "material_13",
      "pbrMetallicRoughness": {
        "baseColorTexture": {
          "index": 12
        },
        "metallicFactor": 0.0
      }
    },
    {
      "doubleSided": true,
      "name": ".001_14",
      "pbrMetallicRoughness": {
        "baseColorTexture": {
          "index": 2
        },
        "metallicFactor": 0.0,
        "roughnessFactor": 0.6
      }
    },
    {
      "doubleSided": true,
      "name": "material_15",
      "pbrMetallicRoughness": {
        "baseColorTexture": {
          "index": 13
        },
        "metallicFactor": 0.0,
        "roughnessFactor": 0.6
      }
    }
  ],
  "meshes": [
    {
      "name": "Object_0",
      "primitives": [
        {
          "attributes": {
            "NORMAL": 1,
            "POSITION": 0,
            "TEXCOORD_0": 2
          },
          "indices": 3,
          "material": 6,
          "mode": 4
        }
      ]
    },
    {
      "name": "Object_1",
      "primitives": [
        {
          "attributes": {
            "NORMAL": 5,
            "POSITION": 4,
            "TEXCOORD_0": 6
          },
          "indices": 7,
          "material": 2,
          "mode": 4
        }
      ]
    },
    {
      "name": "Object_2",
      "primitives": [
        {
          "attributes": {
            "NORMAL": 9,
            "POSITION": 8,
            "TEXCOORD_0": 10
          },
          "indices": 11,
          "material": 5,
          "mode": 4
        }
      ]
    },
    {
      "name": "Object_3",
      "primitives": [
        {
          "attributes": {
            "NORMAL": 13,
            "POSITION": 12,
            "TEXCOORD_0": 14
          },
          "indices": 15,
          "material": 9,
          "mode": 4
        }
      ]
    },
    {
      "name": "Object_4",
      "primitives": [
        {
          "attributes": {
            "NORMAL": 17,
            "POSITION": 16,
            "TEXCOORD_0": 18
          },
          "indices": 19,
          "material": 10,
          "mode": 4
        }
      ]
    },
    {
      "name": "Object_5",
      "primitives": [
        {
          "attributes": {
            "NORMAL": 21,
            "POSITION": 20,
            "TEXCOORD_0": 22
          },
          "indices": 23,
          "material": 8,
          "mode": 4
        }
      ]
    },
    {
      "name": "Object_6",
      "primitives": [
        {
          "attributes": {
            "POSITION": 24,
            "TEXCOORD_0": 25
          },
          "indices": 26,
          "material": 14,
          "mode": 1
        }
      ]
    },
    {
      "name": "Object_7",
      "primitives": [
        {
          "attributes": {
            "NORMAL": 28,
            "POSITION": 27,
            "TEXCOORD_0": 29
          },
          "indices": 30,
          "material": 0,
          "mode": 4
        }
      ]
    },
    {
      "name": "Object_8",
      "primitives": [
        {
          "attributes": {
            "NORMAL": 32,
            "POSITION": 31,
            "TEXCOORD_0": 33
          },
          "indices": 34,
          "material": 0,
          "mode": 4
        }
      ]
    },
    {
      "name": "Object_9",
      "primitives": [
        {
          "attributes": {
            "NORMAL": 36,
            "POSITION": 35,
            "TEXCOORD_0": 37
          },
          "indices": 38,
          "material": 1,
          "mode": 4
        }
      ]
    },
    {
      "name": "Object_10",
      "primitives": [
        {
          "attributes": {
            "NORMAL": 40,
            "POSITION": 39,
            "TEXCOORD_0": 41
          },
          "indices": 42,
          "material": 3,
          "mode": 4
        }
      ]
    },
    {
      "name": "Object_11",
      "primitives": [
        {
          "attributes": {
            "NORMAL": 44,
            "POSITION": 43,
            "TANGENT": 45,
            "TEXCOORD_0": 46
          },
          "indices": 47,
          "material": 11,
          "mode": 4
        }
      ]
    },
    {
      "name": "Object_12",
      "primitives": [
        {
          "attributes": {
            "NORMAL": 49,
            "POSITION": 48,
            "TEXCOORD_0": 50
          },
          "indices": 51,
          "material": 12,
          "mode": 4
        }
      ]
    },
    {
      "name": "Object_13",
      "primitives": [
        {
          "attributes": {
            "NORMAL": 53,
            "POSITION": 52,
            "TEXCOORD_0": 54
          },
          "indices": 55,
          "material": 7,
          "mode": 4
        }
      ]
    },
    {
      "name": "Object_14",
      "primitives": [
        {
          "attributes": {
            "NORMAL": 57,
            "POSITION": 56,
            "TEXCOORD_0": 58
          },
          "indices": 59,
          "material": 4,
          "mode": 4
        }
      ]
    },
    {
      "name": "Object_15",
      "primitives": [
        {
          "attributes": {
            "NORMAL": 61,
            "POSITION": 60,
            "TEXCOORD_0": 62
          },
          "indices": 63,
          "material": 13,
          "mode": 4
        }
      ]
    },
    {
      "name": "Object_16",
      "primitives": [
        {
          "attributes": {
            "NORMAL": 65,
            "POSITION": 64,
            "TEXCOORD_0": 66
          },
          "indices": 67,
          "material": 14,
          "mode": 4
        }
      ]
    },
    {
      "name": "Object_17",
      "primitives": [
        {
          "attributes": {
            "NORMAL": 69,
            "POSITION": 68,
            "TEXCOORD_0": 70
          },
          "indices": 71,
          "material": 15,
          "mode": 4
        }
      ]
    }
  ],
  "nodes": [
    {
      "children": [
        1
      ],
      "matrix": [
        1.0,
        0.0,
        0.0,
        0.0,
        0.0,
        2.220446049250313e-16,
        -1.0,
        0.0,
        0.0,
        1.0,
        2.220446049250313e-16,
        0.0,
        0.0,
        0.0,
        0.0,
        1.0
      ],
      "name": "Sketchfab_model"
    },
    {
      "children": [
        2,
        3,
        4,
        5,
        6,
        7,
        8,
        9,
        10,
        11,
        12,
        13,
        14,
        15,
        16,
        17,
        18,
        19
      ],
      "name": "Pack.obj.cleaner.materialmerger.gles"
    },
    {
      "mesh": 0,
      "name": "Object_2"
    },
    {
      "mesh": 1,
      "name": "Object_3"
    },
    {
      "mesh": 2,
      "name": "Object_4"
    },
    {
      "mesh": 3,
      "name": "Object_5"
    },
    {
      "mesh": 4,
      "name": "Object_6"
    },
    {
      "mesh": 5,
      "name": "Object_7"
    },
    {
      "mesh": 6,
      "name": "Object_8"
    },
    {
      "mesh": 7,
      "name": "Object_9"
    },
    {
      "mesh": 8,
      "name": "Object_10"
    },
    {
      "mesh": 9,
      "name": "Object_11"
    },
    {
      "mesh": 10,
      "name": "Object_12"
    },
    {
      "mesh": 11,
      "name": "Object_13"
    },
    {
      "mesh": 12,
      "name": "Object_14"
    },
    {
      "mesh": 13,
      "name": "Object_15"
    },
    {
      "mesh": 14,
      "name": "Object_16"
    },
    {
      "mesh": 15,
      "name": "Object_17"
    },
    {
      "mesh": 16,
      "name": "Object_18"
    },
    {
      "mesh": 17,
      "name": "Object_19"
    }
  ],
  "samplers": [
    {
      "magFilter": 9729,
      "minFilter": 9987,
      "wrapS": 10497,
      "wrapT": 10497
    }
  ],
  "scene": 0,
  "scenes": [
    {
      "name": "Sketchfab_Scene",
      "nodes": [
        0
      ]
    }
  ],
  "textures": [
    {
      "sampler": 0,
      "source": 0
    },
    {
      "sampler": 0,
      "source": 1
    },
    {
      "sampler": 0,
      "source": 2
    },
    {
      "sampler": 0,
      "source": 3
    },
    {
      "sampler": 0,
      "source": 4
    },
    {
      "sampler": 0,
      "source": 5
    },
    {
      "sampler": 0,
      "source": 6
    },
    {
      "sampler": 0,
      "source": 7
    },
    {
      "sampler": 0,
      "source": 8
    },
    {
      "sampler": 0,
      "source": 9
    },
    {
      "sampler": 0,
      "source": 10
    },
    {
      "sampler": 0,
      "source": 11
    },
    {
      "sampler": 0,
      "source": 12
    },
    {
      "sampler": 0,
      "source": 13
    }
  ]
}
